<svg width="479" height="121" viewBox="0 0 479 121" fill="none" xmlns="http://www.w3.org/2000/svg">
<path d="M137.514 118.398H120.259V78.4354C120.259 73.6409 119.467 69.1629 117.929 65.1147C116.391 61.1116 113.994 57.855 110.782 55.4351C107.594 53.0152 103.5 51.7939 98.6604 51.7939C93.8205 51.7939 90.0889 52.9925 86.9453 55.3446C83.7791 57.7193 81.3818 60.9081 79.7987 64.8659C78.2156 68.8463 77.4014 73.3016 77.4014 78.0962V118.398H60.1455V78.0962C60.1455 73.3016 59.3539 68.8689 57.816 64.8659C56.2781 60.9081 53.8809 57.7193 50.692 55.3446C47.5032 52.9925 43.4097 51.7939 38.5699 51.7939C33.7301 51.7939 29.7045 53.0152 26.6287 55.4124C23.5303 57.8323 21.2009 61.089 19.7308 65.092C18.2382 69.1403 17.4919 73.6182 17.4919 78.4128V118.375H0.258545V75.9703C0.258545 68.4392 1.68335 61.5187 4.4651 55.3898C7.26948 49.2383 11.4987 44.2854 17.0395 40.6669C22.5804 37.0483 29.4557 35.1938 37.4617 35.1938C44.2465 35.1938 50.2397 36.5282 55.2378 39.1742C60.2359 41.8203 64.2163 45.5067 67.0207 50.1203C67.8123 51.4094 68.5134 52.8568 69.124 54.5078C69.7572 52.8568 70.4583 51.432 71.2499 50.1203C74.0543 45.4841 77.9668 41.8203 82.8745 39.1742C87.7595 36.5282 93.4813 35.1938 99.8364 35.1938C107.933 35.1938 114.876 37.0257 120.417 40.6669C125.958 44.2854 130.255 49.2383 133.15 55.3898C136.044 61.5187 137.514 68.394 137.514 75.812V118.398ZM121.389 117.267H136.384V75.812C136.384 68.5523 134.959 61.8354 132.132 55.8648C129.305 49.9168 125.166 45.1222 119.806 41.5941C114.446 38.0887 107.729 36.302 99.8364 36.302C93.6622 36.302 88.144 37.5911 83.4172 40.1467C78.6905 42.6797 74.9363 46.2304 72.245 50.6857C71.2725 52.2914 70.4357 54.1233 69.6668 56.3171L69.124 57.8776L68.6038 56.2945C67.8575 54.1007 67.0433 52.2688 66.0708 50.6631C63.3795 46.2078 59.5575 42.6571 54.7176 40.1241C49.8778 37.5685 44.0882 36.2794 37.4843 36.2794C29.7045 36.2794 23.0554 38.066 17.6728 41.5715C12.3128 45.077 8.21934 49.8715 5.50544 55.8195C2.79153 61.7901 1.41196 68.5749 1.41196 75.9477V117.222H16.4063V78.3902C16.4063 73.4599 17.1752 68.8463 18.7131 64.685C20.251 60.4784 22.7161 57.0634 25.9728 54.5078C29.2521 51.9522 33.5265 50.6405 38.6151 50.6405C43.7037 50.6405 48.0007 51.907 51.4157 54.4173C54.8081 56.9051 57.3185 60.2749 58.9242 64.4362C60.5073 68.5523 61.3215 73.1433 61.3215 78.0736V117.244H76.3158V78.0736C76.3158 73.1433 77.1526 68.5523 78.8036 64.4362C80.4546 60.2975 82.9875 56.9277 86.3121 54.4173C89.6592 51.907 93.8206 50.6405 98.7056 50.6405C103.591 50.6405 108.114 51.9296 111.506 54.5078C114.899 57.0634 117.409 60.4784 119.015 64.685C120.598 68.8689 121.412 73.4826 121.412 78.4128V117.244L121.389 117.267Z" fill="white"/>
<path d="M171.303 22.8003C169.358 22.8003 167.526 22.3027 165.807 21.3529C164.111 20.3804 162.709 19.0234 161.691 17.3273C160.673 15.6084 160.153 13.7087 160.153 11.6733C160.153 9.63785 160.673 7.71549 161.691 6.0193C162.709 4.32311 164.088 2.94354 165.784 1.92582C167.503 0.908105 169.335 0.387939 171.28 0.387939C173.338 0.387939 175.215 0.908105 176.866 1.94844C178.517 2.96615 179.829 4.34572 180.801 6.06453C181.774 7.78334 182.249 9.68308 182.249 11.7185C182.249 13.7539 181.751 15.6537 180.801 17.3725C179.829 19.0913 178.494 20.4482 176.844 21.3981C175.193 22.3706 173.315 22.8681 171.257 22.8681L171.303 22.8003ZM171.303 1.4735C169.561 1.4735 167.91 1.94844 166.372 2.85307C164.834 3.78033 163.591 5.0242 162.663 6.56208C161.736 8.09996 161.284 9.79616 161.284 11.6507C161.284 13.5052 161.759 15.2014 162.663 16.7392C163.591 18.2771 164.834 19.4984 166.372 20.3578C169.539 22.1444 173.429 22.054 176.301 20.3578C177.771 19.4984 178.969 18.2771 179.851 16.7392C180.711 15.2014 181.163 13.4825 181.163 11.6507C181.163 9.81877 180.733 8.09996 179.851 6.56208C178.969 5.0242 177.793 3.78033 176.301 2.85307C174.831 1.94844 173.135 1.4735 171.303 1.4735Z" fill="#CB9AC6"/>
<path d="M180.01 118.398H162.754V37.478H180.01V118.398ZM163.885 117.267H178.879V38.6088H163.885V117.267Z" fill="white"/>
<path d="M216.896 22.8003C214.951 22.8003 213.119 22.3027 211.401 21.3529C209.704 20.3804 208.302 19.0234 207.285 17.3273C206.267 15.6084 205.747 13.7087 205.747 11.6733C205.747 9.63785 206.267 7.71549 207.285 6.0193C208.302 4.32311 209.682 2.94354 211.378 1.92582C213.097 0.908105 214.929 0.387939 216.874 0.387939C218.932 0.387939 220.809 0.908105 222.46 1.94844C224.111 2.96615 225.423 4.34572 226.395 6.06453C227.367 7.78334 227.842 9.68308 227.842 11.7185C227.842 13.7539 227.345 15.6537 226.395 17.3725C225.423 19.0913 224.088 20.4482 222.437 21.3981C220.786 22.3706 218.909 22.8681 216.851 22.8681L216.896 22.8003ZM216.896 1.4735C215.155 1.4735 213.504 1.94844 211.966 2.85307C210.428 3.78033 209.184 5.0242 208.257 6.56208C207.33 8.09996 206.877 9.79616 206.877 11.6507C206.877 13.5052 207.352 15.2014 208.257 16.7392C209.184 18.2771 210.428 19.4984 211.966 20.3578C215.132 22.1444 219.022 22.054 221.894 20.3578C223.364 19.4984 224.563 18.2771 225.445 16.7392C226.305 15.2014 226.757 13.4825 226.757 11.6507C226.757 9.81877 226.327 8.09996 225.445 6.56208C224.563 5.0242 223.387 3.78033 221.894 2.85307C220.424 1.94844 218.728 1.4735 216.896 1.4735Z" fill="#E2D26C"/>
<path d="M225.603 118.398H208.348V37.478H225.603V118.398ZM209.478 117.267H224.473V38.6088H209.478V117.267Z" fill="white"/>
<path d="M287.119 120.184C281.691 120.184 276.467 119.121 271.559 117.041C266.403 114.847 261.857 111.771 258.035 107.881C254.213 103.991 251.159 99.423 248.966 94.2666C246.772 89.1328 245.664 83.5692 245.664 77.757C245.664 71.9447 246.772 66.4264 248.966 61.3378C251.159 56.2492 254.213 51.7034 258.035 47.8135C261.879 43.9236 266.425 40.8704 271.582 38.7219C276.738 36.596 282.234 35.5104 287.91 35.5104C295.351 35.5104 302.339 37.2292 308.694 40.6216C315.072 44.0366 320.183 49.4871 323.915 56.8146L324.164 57.2896L309.848 65.3182L309.576 64.8207C307.247 60.4784 304.171 57.2217 300.439 55.1184C296.685 53.0152 292.479 51.9296 287.933 51.9296C283.387 51.9296 279.203 53.1056 275.449 55.4351C271.695 57.7645 268.642 60.9307 266.357 64.8433C264.096 68.7558 262.942 73.0981 262.942 77.757C262.942 82.4158 264.096 86.9164 266.357 90.8289C268.642 94.7415 271.695 97.953 275.449 100.328C279.181 102.702 283.387 103.901 287.933 103.901C292.479 103.901 296.685 102.793 300.439 100.644C304.194 98.4731 307.269 95.2391 309.599 91.0099L309.87 90.5123L324.209 98.3827L323.96 98.8802C320.228 106.117 315.117 111.545 308.74 115.005C302.384 118.443 295.396 120.207 287.956 120.207C287.684 120.207 287.435 120.207 287.164 120.207L287.119 120.184ZM287.888 36.6412C282.347 36.6412 276.987 37.7042 271.989 39.7622C266.991 41.8429 262.558 44.8056 258.826 48.5824C255.095 52.3593 252.132 56.792 249.983 61.7675C247.857 66.7204 246.772 72.103 246.772 77.757C246.772 83.4109 247.857 88.8161 249.983 93.8143C252.109 98.835 255.095 103.29 258.826 107.067C262.558 110.844 266.991 113.852 271.989 115.978C276.987 118.104 282.302 119.121 287.888 119.031C295.147 119.031 301.955 117.335 308.129 113.965C314.145 110.686 319.03 105.597 322.626 98.8124L310.255 92.0276C307.858 96.2115 304.737 99.423 300.96 101.617C297.047 103.878 292.637 105.032 287.888 105.032C283.138 105.032 278.728 103.765 274.793 101.278C270.88 98.7898 267.692 95.4652 265.317 91.3943C262.942 87.3235 261.744 82.7325 261.744 77.757C261.744 72.7815 262.942 68.3714 265.317 64.2779C267.692 60.207 270.88 56.9051 274.793 54.4852C278.728 52.0427 283.116 50.8214 287.865 50.8214C292.614 50.8214 297.002 51.9522 300.914 54.146C304.691 56.2718 307.835 59.5285 310.232 63.8029L322.603 56.8599C319.007 49.962 314.122 44.8508 308.106 41.6394C301.91 38.3374 295.102 36.6638 287.865 36.6638L287.888 36.6412Z" fill="white"/>
<path d="M356.527 118.398H339.271V70.2937C339.271 63.7351 340.515 57.7871 342.98 52.6307C345.468 47.4516 349.154 43.3129 353.949 40.3502C358.743 37.3876 364.736 35.8723 371.747 35.8723C374.371 35.8723 376.972 36.1211 379.437 36.6186C381.902 37.1162 384.231 37.8625 386.335 38.8576L386.651 39.0159V56.3397L385.792 55.8195C383.892 54.6661 381.834 53.8067 379.686 53.2865C377.514 52.7664 375.343 52.495 373.217 52.495C368.084 52.495 363.99 54.1686 361.027 57.4479C358.042 60.7498 356.527 65.2956 356.527 70.9948V118.466V118.398ZM340.402 117.267H355.396V70.9269C355.396 64.9564 357.002 60.1392 360.191 56.6337C363.379 53.1056 367.767 51.319 373.24 51.319C375.434 51.319 377.695 51.5903 379.98 52.1557C381.925 52.6307 383.802 53.3544 385.543 54.3269V39.717C383.621 38.835 381.495 38.1565 379.233 37.7042C376.836 37.2293 374.326 36.9805 371.77 36.9805C364.963 36.9805 359.173 38.4279 354.559 41.3001C349.946 44.1497 346.418 48.1301 344.02 53.1056C341.623 58.1037 340.402 63.8934 340.402 70.2937V117.267Z" fill="white"/>
<path d="M435.592 120.343C427.496 120.343 420.1 118.398 413.655 114.553C407.209 110.731 401.985 105.529 398.14 99.129C394.295 92.7287 392.373 85.5368 392.373 77.757C392.373 69.9771 394.318 62.8078 398.163 56.4528C401.985 50.0977 407.209 44.9639 413.677 41.187C420.145 37.4102 427.518 35.4878 435.615 35.4878C443.711 35.4878 451.084 37.4102 457.552 41.187C464.02 44.9639 469.177 50.1203 472.908 56.5432C476.64 62.9435 478.517 70.0902 478.517 77.757C478.517 85.4237 476.64 92.7061 472.908 99.129C469.177 105.529 463.998 110.731 457.484 114.553C450.971 118.398 443.598 120.32 435.615 120.32L435.592 120.343ZM435.592 36.6412C427.699 36.6412 420.507 38.4957 414.22 42.1821C407.933 45.8685 402.844 50.8666 399.113 57.0408C395.381 63.2149 393.504 70.1806 393.504 77.757C393.504 85.3333 395.404 92.3216 399.113 98.5636C402.844 104.806 407.933 109.849 414.22 113.581C420.507 117.312 427.699 119.212 435.592 119.212C443.485 119.212 450.541 117.312 456.874 113.581C463.229 109.849 468.272 104.806 471.891 98.5636C475.509 92.3216 477.341 85.3333 477.341 77.757C477.341 70.1806 475.509 63.3506 471.891 57.1086C468.272 50.8666 463.229 45.8459 456.942 42.1595C450.654 38.4731 443.462 36.6186 435.569 36.6186L435.592 36.6412ZM435.592 105.032C430.504 105.032 425.89 103.81 421.864 101.368C417.839 98.9481 414.559 95.6235 412.139 91.4848C409.72 87.3461 408.476 82.8003 408.476 77.9379C408.476 73.0755 409.697 68.3714 412.139 64.3005C414.559 60.2296 417.839 56.9051 421.864 54.4173C425.89 51.9296 430.526 50.6631 435.592 50.6631C440.658 50.6631 445.294 51.9296 449.32 54.4173C453.346 56.9051 456.557 60.2296 458.887 64.3005C461.193 68.394 462.369 72.9624 462.369 77.9379C462.369 82.9134 461.193 87.3461 458.887 91.4848C456.557 95.6235 453.346 98.9481 449.32 101.391C445.294 103.833 440.658 105.054 435.592 105.054V105.032ZM435.592 51.7939C430.73 51.7939 426.297 52.9925 422.452 55.3672C418.585 57.7419 415.441 60.9533 413.112 64.8659C410.782 68.7784 409.606 73.1659 409.606 77.9379C409.606 82.7098 410.782 86.9616 413.112 90.9194C415.441 94.8998 418.585 98.0887 422.43 100.418C426.274 102.748 430.707 103.924 435.569 103.924C440.432 103.924 444.865 102.748 448.709 100.418C452.577 98.0887 455.652 94.8998 457.869 90.942C460.085 86.9842 461.216 82.5968 461.216 77.9379C461.216 73.279 460.085 68.7784 457.869 64.8659C455.652 60.9533 452.554 57.7645 448.709 55.3898C444.842 53.0152 440.432 51.8165 435.569 51.8165L435.592 51.7939Z" fill="white"/>
</svg>
