<svg width="24" height="25" viewBox="0 0 24 25" fill="none" xmlns="http://www.w3.org/2000/svg">
<path d="M15.2266 13.75C18.1172 13.75 20.5 16.1328 20.5 19.0234V20.625C20.5 21.6797 19.6406 22.5 18.625 22.5H4.875C3.82031 22.5 3 21.6797 3 20.625V19.0234C3 16.1328 5.34375 13.75 8.23438 13.75C9.36719 13.75 9.875 14.375 11.75 14.375C13.5859 14.375 14.0938 13.75 15.2266 13.75ZM19.25 20.625V19.0234C19.25 16.7969 17.4531 15 15.2266 15C14.4844 15 13.7031 15.625 11.75 15.625C9.75781 15.625 9.01562 15 8.23438 15C6.00781 15 4.25 16.7969 4.25 19.0234V20.625C4.25 20.9766 4.52344 21.25 4.875 21.25H18.625C18.9375 21.25 19.25 20.9766 19.25 20.625ZM11.75 12.5C8.97656 12.5 6.75 10.2734 6.75 7.5C6.75 4.76562 8.97656 2.5 11.75 2.5C14.4844 2.5 16.75 4.76562 16.75 7.5C16.75 10.2734 14.4844 12.5 11.75 12.5ZM11.75 3.75C9.67969 3.75 8 5.46875 8 7.5C8 9.57031 9.67969 11.25 11.75 11.25C13.7812 11.25 15.5 9.57031 15.5 7.5C15.5 5.46875 13.7812 3.75 11.75 3.75Z" fill="white" fill-opacity="0.5"/>
</svg>
