<svg width="24" height="25" viewBox="0 0 24 25" fill="none" xmlns="http://www.w3.org/2000/svg">
<g clip-path="url(#clip0_2701_618)">
<path d="M12 24.5C18.6274 24.5 24 19.1274 24 12.5C24 5.87258 18.6274 0.5 12 0.5C5.37258 0.5 0 5.87258 0 12.5C0 19.1274 5.37258 24.5 12 24.5Z" fill="#F0F0F0"/>
<path d="M2.48056 5.19415C1.53796 6.42054 0.827189 7.83406 0.41333 9.36964H6.65605L2.48056 5.19415Z" fill="#0052B4"/>
<path d="M23.5865 9.36964C23.1726 7.83411 22.4618 6.4206 21.5193 5.19421L17.3439 9.36964H23.5865Z" fill="#0052B4"/>
<path d="M0.41333 15.6305C0.827236 17.166 1.538 18.5795 2.48056 19.8059L6.65591 15.6305H0.41333Z" fill="#0052B4"/>
<path d="M19.3058 2.98067C18.0794 2.03806 16.6659 1.3273 15.1304 0.913391V7.15606L19.3058 2.98067Z" fill="#0052B4"/>
<path d="M4.69409 22.0193C5.92048 22.9619 7.334 23.6727 8.86953 24.0866V17.844L4.69409 22.0193Z" fill="#0052B4"/>
<path d="M8.86948 0.913391C7.33395 1.3273 5.92044 2.03806 4.69409 2.98063L8.86948 7.15602V0.913391Z" fill="#0052B4"/>
<path d="M15.1304 24.0866C16.6659 23.6727 18.0794 22.9619 19.3058 22.0194L15.1304 17.844V24.0866Z" fill="#0052B4"/>
<path d="M17.3439 15.6305L21.5193 19.8059C22.4618 18.5796 23.1726 17.166 23.5865 15.6305H17.3439Z" fill="#0052B4"/>
<path d="M23.8984 10.9348H13.5653H13.5653V0.601578C13.0529 0.534875 12.5305 0.5 12 0.5C11.4694 0.5 10.9471 0.534875 10.4348 0.601578V10.9347V10.9347H0.101578C0.034875 11.4471 0 11.9695 0 12.5C0 13.0306 0.034875 13.5529 0.101578 14.0652H10.4347H10.4347V24.3984C10.9471 24.4651 11.4694 24.5 12 24.5C12.5305 24.5 13.0529 24.4652 13.5652 24.3984V14.0653V14.0653H23.8984C23.9651 13.5529 24 13.0306 24 12.5C24 11.9695 23.9651 11.4471 23.8984 10.9348Z" fill="#D80027"/>
<path d="M15.1305 15.6305L20.4853 20.9853C20.7316 20.7391 20.9665 20.4817 21.1907 20.2149L16.6062 15.6305H15.1305V15.6305Z" fill="#D80027"/>
<path d="M8.86951 15.6305H8.86941L3.51465 20.9853C3.76084 21.2315 4.01823 21.4665 4.28504 21.6906L8.86951 17.1061V15.6305Z" fill="#D80027"/>
<path d="M8.86951 9.36964V9.36955L3.5147 4.01469C3.26842 4.26087 3.03348 4.51826 2.80933 4.78508L7.39384 9.36959H8.86951V9.36964Z" fill="#D80027"/>
<path d="M15.1305 9.36964L20.4854 4.01473C20.2392 3.76845 19.9818 3.53351 19.715 3.3094L15.1305 7.89392V9.36964Z" fill="#D80027"/>
</g>
<defs>
<clipPath id="clip0_2701_618">
<rect width="24" height="24" fill="white" transform="translate(0 0.5)"/>
</clipPath>
</defs>
</svg>
