<svg width="1319" height="154" viewBox="0 0 1319 154" fill="none" xmlns="http://www.w3.org/2000/svg">
<mask id="path-1-outside-1_4788_88" maskUnits="userSpaceOnUse" x="-1" y="-1" width="1321" height="156" fill="black">
<rect fill="white" x="-1" y="-1" width="1321" height="156"/>
<path d="M54.96 116.92C24.24 116.92 0.4 92.12 0.4 61.24C0.4 31 24.08 6.03999 54.96 6.03999C72.72 6.03999 90 14.68 98.32 31L85.04 38.68C78.64 27.64 67.44 21.4 54.32 21.4C33.2 21.4 17.2 39.16 17.2 61.56C17.2 84.44 33.2 101.88 54.96 101.88C67.76 101.88 78.16 96.92 83.28 90.84V65.08H99.12V96.44C91.76 107.16 75.92 116.92 54.96 116.92ZM150.794 116.76C126.954 116.76 109.194 99.48 109.194 75.32C109.194 52.76 125.354 34.36 148.874 34.36C172.554 34.36 187.274 51.48 187.274 73.4V79.8H124.554C126.314 93.24 136.554 102.68 150.634 102.68C160.234 102.68 168.874 98.52 173.514 89.88L185.674 96.12C178.794 109.56 166.154 116.76 150.794 116.76ZM125.194 69.56H171.434C170.794 57.08 161.674 48.6 148.714 48.6C135.434 48.6 126.794 57.88 125.194 69.56ZM237.065 117.08C217.545 117.08 207.145 104.76 207.145 86.84V50.36H191.625V36.6H207.145V16.28H222.985V36.6H253.065V50.36H222.985V86.36C222.985 96.6 229.065 102.68 238.505 102.68C243.625 102.68 249.225 100.76 253.065 98.04V112.6C249.065 115.32 242.825 117.08 237.065 117.08ZM337.601 116.76C323.041 116.76 311.841 111 305.761 99.32L317.921 92.6C321.921 100.44 328.321 103.32 336.961 103.32C345.921 103.32 352.801 99.64 352.801 92.76C352.801 76.28 307.841 88.76 307.841 58.84C307.841 45.08 320.001 35 337.121 35C351.681 35 361.601 41.72 366.561 50.84L354.401 57.72C351.041 50.84 344.641 48.44 337.441 48.44C330.081 48.44 323.681 52.28 323.681 58.52C323.681 74.52 368.641 62.84 368.641 92.44C368.641 107.32 354.241 116.76 337.601 116.76ZM418.602 117.08C399.083 117.08 388.683 104.76 388.683 86.84V50.36H373.163V36.6H388.683V16.28H404.523V36.6H434.603V50.36H404.523V86.36C404.523 96.6 410.603 102.68 420.043 102.68C425.163 102.68 430.763 100.76 434.603 98.04V112.6C430.603 115.32 424.363 117.08 418.602 117.08ZM482.991 116.92C460.271 116.92 443.631 98.36 443.631 75.64C443.631 53.24 461.551 34.68 485.391 34.68C509.071 34.68 527.151 52.28 527.151 75.64V115H512.111V101.24C506.191 110.84 495.791 116.92 482.991 116.92ZM485.391 101.88C500.111 101.88 511.311 90.04 511.311 75.8C511.311 61.4 500.111 49.56 485.391 49.56C470.831 49.56 459.471 61.4 459.471 75.8C459.471 90.04 470.831 101.88 485.391 101.88ZM560.881 115H545.041V68.28C545.041 49.24 555.921 35 576.401 35C581.361 35 586.481 35.96 590.481 37.88V53.56C586.641 51.32 582.161 50.2 577.841 50.2C567.281 50.2 560.881 57.4 560.881 68.92V115ZM637.796 117.08C618.276 117.08 607.876 104.76 607.876 86.84V50.36H592.356V36.6H607.876V16.28H623.716V36.6H653.796V50.36H623.716V86.36C623.716 96.6 629.796 102.68 639.236 102.68C644.356 102.68 649.956 100.76 653.796 98.04V112.6C649.796 115.32 643.556 117.08 637.796 117.08ZM704.425 116.76C680.585 116.76 662.825 99.48 662.825 75.32C662.825 52.76 678.985 34.36 702.505 34.36C726.185 34.36 740.905 51.48 740.905 73.4V79.8H678.185C679.945 93.24 690.185 102.68 704.265 102.68C713.865 102.68 722.505 98.52 727.145 89.88L739.305 96.12C732.425 109.56 719.785 116.76 704.425 116.76ZM678.825 69.56H725.065C724.425 57.08 715.305 48.6 702.345 48.6C689.065 48.6 680.425 57.88 678.825 69.56ZM791.816 116.92C767.976 116.92 750.056 98.52 750.056 75.96C750.056 52.12 767.336 34.68 791.016 34.68C801.576 34.68 811.176 39.32 817.576 46.36L817.736 0.599995H833.576V75.96C833.576 99.16 815.496 116.92 791.816 116.92ZM791.816 102.04C806.536 102.04 817.736 90.2 817.736 75.8C817.736 61.56 806.536 49.72 791.816 49.72C777.256 49.72 765.896 61.56 765.896 75.8C765.896 90.2 777.256 102.04 791.816 102.04ZM927.971 117.08C908.451 117.08 898.051 104.76 898.051 86.84V50.36H882.531V36.6H898.051V16.28H913.891V36.6H943.971V50.36H913.891V86.36C913.891 96.6 919.971 102.68 929.411 102.68C934.531 102.68 940.131 100.76 943.971 98.04V112.6C939.971 115.32 933.731 117.08 927.971 117.08ZM994.92 116.92C971.24 116.92 953 98.36 953 75.64C953 53.08 971.4 34.68 994.92 34.68C1018.6 34.68 1036.52 53.24 1036.52 75.64C1036.52 98.36 1018.44 116.92 994.92 116.92ZM994.92 101.88C1009.48 101.88 1020.68 90.04 1020.68 75.8C1020.68 61.4 1009.48 49.56 994.92 49.56C980.2 49.56 968.84 61.4 968.84 75.8C968.84 90.04 980.2 101.88 994.92 101.88ZM1086.21 116.92C1062.37 116.92 1044.45 98.52 1044.45 75.96C1044.45 52.12 1061.73 34.68 1085.41 34.68C1095.97 34.68 1105.57 39.32 1111.97 46.36L1112.13 0.599995H1127.97V75.96C1127.97 99.16 1109.89 116.92 1086.21 116.92ZM1086.21 102.04C1100.93 102.04 1112.13 90.2 1112.13 75.8C1112.13 61.56 1100.93 49.72 1086.21 49.72C1071.65 49.72 1060.29 61.56 1060.29 75.8C1060.29 90.2 1071.65 102.04 1086.21 102.04ZM1180.26 116.92C1157.54 116.92 1140.9 98.36 1140.9 75.64C1140.9 53.24 1158.82 34.68 1182.66 34.68C1206.34 34.68 1224.42 52.28 1224.42 75.64V115H1209.38V101.24C1203.46 110.84 1193.06 116.92 1180.26 116.92ZM1182.66 101.88C1197.38 101.88 1208.58 90.04 1208.58 75.8C1208.58 61.4 1197.38 49.56 1182.66 49.56C1168.1 49.56 1156.74 61.4 1156.74 75.8C1156.74 90.04 1168.1 101.88 1182.66 101.88ZM1278.15 153.08C1261.51 153.08 1247.75 146.04 1240.71 132.12L1253.83 124.92C1258.31 133.4 1267.11 138.36 1277.83 138.36C1294.47 138.36 1303.11 125.88 1303.11 108.92V102.04C1298.47 110.84 1290.15 116.12 1278.31 116.12C1254.31 116.12 1242.63 100.28 1242.63 77.24V36.6H1258.31V76.44C1258.31 91.16 1265.99 101.24 1280.23 101.24C1293.99 101.24 1302.95 89.72 1302.95 75.32V36.6H1318.95V108.76C1318.95 135 1303.59 153.08 1278.15 153.08Z"/>
</mask>
<path d="M98.32 31L98.8206 31.8657L99.6417 31.3908L99.2109 30.5458L98.32 31ZM85.04 38.68L84.1749 39.1815L84.6759 40.0458L85.5406 39.5457L85.04 38.68ZM83.28 90.84L84.0449 91.4841L84.28 91.205V90.84H83.28ZM83.28 65.08V64.08H82.28V65.08H83.28ZM99.12 65.08H100.12V64.08H99.12V65.08ZM99.12 96.44L99.9444 97.006L100.12 96.7502V96.44H99.12ZM54.96 115.92C24.8168 115.92 1.4 91.5926 1.4 61.24H-0.6C-0.6 92.6474 23.6632 117.92 54.96 117.92V115.92ZM1.4 61.24C1.4 31.5293 24.655 7.03999 54.96 7.03999V5.03999C23.505 5.03999 -0.6 30.4707 -0.6 61.24H1.4ZM54.96 7.03999C72.4148 7.03999 89.3098 15.5278 97.4291 31.4542L99.2109 30.5458C90.6902 13.8322 73.0252 5.03999 54.96 5.03999V7.03999ZM97.8194 30.1343L84.5394 37.8143L85.5406 39.5457L98.8206 31.8657L97.8194 30.1343ZM85.9051 38.1785C79.3176 26.8149 67.7789 20.4 54.32 20.4V22.4C67.1011 22.4 77.9625 28.4651 84.1749 39.1815L85.9051 38.1785ZM54.32 20.4C32.568 20.4 16.2 38.6909 16.2 61.56H18.2C18.2 39.6291 33.832 22.4 54.32 22.4V20.4ZM16.2 61.56C16.2 84.9235 32.5813 102.88 54.96 102.88V100.88C33.8187 100.88 18.2 83.9565 18.2 61.56H16.2ZM54.96 102.88C67.9879 102.88 78.6956 97.8365 84.0449 91.4841L82.5151 90.1959C77.6244 96.0035 67.5321 100.88 54.96 100.88V102.88ZM84.28 90.84V65.08H82.28V90.84H84.28ZM83.28 66.08H99.12V64.08H83.28V66.08ZM98.12 65.08V96.44H100.12V65.08H98.12ZM98.2956 95.874C91.137 106.301 75.6176 115.92 54.96 115.92V117.92C76.2224 117.92 92.383 108.019 99.9444 97.006L98.2956 95.874ZM187.274 79.8V80.8H188.274V79.8H187.274ZM124.554 79.8V78.8H123.414L123.562 79.9298L124.554 79.8ZM173.514 89.88L173.97 88.9903L173.097 88.5422L172.633 89.4069L173.514 89.88ZM185.674 96.12L186.564 96.5757L187.019 95.6864L186.13 95.2303L185.674 96.12ZM125.194 69.56L124.203 69.4243L124.047 70.56H125.194V69.56ZM171.434 69.56V70.56H172.486L172.432 69.5088L171.434 69.56ZM150.794 115.76C127.496 115.76 110.194 98.9175 110.194 75.32H108.194C108.194 100.042 126.412 117.76 150.794 117.76V115.76ZM110.194 75.32C110.194 53.2538 125.963 35.36 148.874 35.36V33.36C124.745 33.36 108.194 52.2662 108.194 75.32H110.194ZM148.874 35.36C160.46 35.36 169.79 39.5419 176.227 46.3472C182.671 53.1597 186.274 62.6639 186.274 73.4H188.274C188.274 62.2161 184.516 52.2003 177.68 44.9728C170.837 37.7381 160.967 33.36 148.874 33.36V35.36ZM186.274 73.4V79.8H188.274V73.4H186.274ZM187.274 78.8H124.554V80.8H187.274V78.8ZM123.562 79.9298C125.386 93.8555 136.039 103.68 150.634 103.68V101.68C137.068 101.68 127.242 92.6245 125.545 79.6702L123.562 79.9298ZM150.634 103.68C160.529 103.68 169.548 99.3773 174.395 90.3531L172.633 89.4069C168.199 97.6627 159.939 101.68 150.634 101.68V103.68ZM173.057 90.7697L185.217 97.0097L186.13 95.2303L173.97 88.9903L173.057 90.7697ZM184.784 95.6643C178.088 108.744 165.808 115.76 150.794 115.76V117.76C166.499 117.76 179.5 110.376 186.564 96.5757L184.784 95.6643ZM125.194 70.56H171.434V68.56H125.194V70.56ZM172.432 69.5088C172.1 63.0301 169.56 57.5374 165.373 53.6658C161.187 49.7958 155.416 47.6 148.714 47.6V49.6C154.972 49.6 160.24 51.6442 164.015 55.1342C167.788 58.6226 170.127 63.6099 170.435 69.6112L172.432 69.5088ZM148.714 47.6C134.869 47.6 125.862 57.3159 124.203 69.4243L126.184 69.6957C127.726 58.4441 135.998 49.6 148.714 49.6V47.6ZM207.145 50.36H208.145V49.36H207.145V50.36ZM191.625 50.36H190.625V51.36H191.625V50.36ZM191.625 36.6V35.6H190.625V36.6H191.625ZM207.145 36.6V37.6H208.145V36.6H207.145ZM207.145 16.28V15.28H206.145V16.28H207.145ZM222.985 16.28H223.985V15.28H222.985V16.28ZM222.985 36.6H221.985V37.6H222.985V36.6ZM253.065 36.6H254.065V35.6H253.065V36.6ZM253.065 50.36V51.36H254.065V50.36H253.065ZM222.985 50.36V49.36H221.985V50.36H222.985ZM253.065 98.04H254.065V96.1062L252.487 97.224L253.065 98.04ZM253.065 112.6L253.627 113.427L254.065 113.129V112.6H253.065ZM237.065 116.08C227.522 116.08 220.326 113.075 215.511 107.992C210.688 102.901 208.145 95.6108 208.145 86.84H206.145C206.145 95.9892 208.802 103.819 214.059 109.368C219.324 114.925 227.088 118.08 237.065 118.08V116.08ZM208.145 86.84V50.36H206.145V86.84H208.145ZM207.145 49.36H191.625V51.36H207.145V49.36ZM192.625 50.36V36.6H190.625V50.36H192.625ZM191.625 37.6H207.145V35.6H191.625V37.6ZM208.145 36.6V16.28H206.145V36.6H208.145ZM207.145 17.28H222.985V15.28H207.145V17.28ZM221.985 16.28V36.6H223.985V16.28H221.985ZM222.985 37.6H253.065V35.6H222.985V37.6ZM252.065 36.6V50.36H254.065V36.6H252.065ZM253.065 49.36H222.985V51.36H253.065V49.36ZM221.985 50.36V86.36H223.985V50.36H221.985ZM221.985 86.36C221.985 91.6774 223.567 96.0277 226.485 99.0541C229.407 102.084 233.566 103.68 238.505 103.68V101.68C234.004 101.68 230.403 100.236 227.925 97.6659C225.443 95.0923 223.985 91.2826 223.985 86.36H221.985ZM238.505 103.68C243.841 103.68 249.641 101.69 253.643 98.856L252.487 97.224C248.809 99.8295 243.409 101.68 238.505 101.68V103.68ZM252.065 98.04V112.6H254.065V98.04H252.065ZM252.503 111.773C248.696 114.361 242.661 116.08 237.065 116.08V118.08C242.989 118.08 249.434 116.279 253.627 113.427L252.503 111.773ZM305.761 99.32L305.278 98.4448L304.424 98.9165L304.874 99.7817L305.761 99.32ZM317.921 92.6L318.812 92.1455L318.342 91.2248L317.438 91.7248L317.921 92.6ZM366.561 50.84L367.054 51.7103L367.91 51.2261L367.44 50.3622L366.561 50.84ZM354.401 57.72L353.503 58.1588L353.969 59.1136L354.894 58.5903L354.401 57.72ZM337.601 115.76C323.331 115.76 312.521 110.14 306.648 98.8583L304.874 99.7817C311.162 111.86 322.751 117.76 337.601 117.76V115.76ZM306.245 100.195L318.405 93.4752L317.438 91.7248L305.278 98.4448L306.245 100.195ZM317.03 93.0545C319.111 97.1327 321.848 99.9738 325.23 101.782C328.599 103.583 332.535 104.32 336.961 104.32V102.32C332.747 102.32 329.164 101.617 326.173 100.018C323.195 98.4262 320.731 95.9073 318.812 92.1455L317.03 93.0545ZM336.961 104.32C341.559 104.32 345.723 103.379 348.772 101.467C351.859 99.5324 353.801 96.5939 353.801 92.76H351.801C351.801 95.8061 350.303 98.1476 347.71 99.7727C345.08 101.421 341.323 102.32 336.961 102.32V104.32ZM353.801 92.76C353.801 90.4415 352.999 88.5881 351.594 87.1095C350.218 85.6607 348.305 84.6131 346.134 83.7812C341.838 82.1351 336.06 81.1802 330.553 79.8673C324.948 78.5308 319.514 76.809 315.482 73.6572C311.515 70.5563 308.841 66.0199 308.841 58.84H306.841C306.841 66.6201 309.787 71.7437 314.25 75.2328C318.648 78.671 324.454 80.4692 330.089 81.8127C335.823 83.1798 341.285 84.0649 345.418 85.6488C347.462 86.4319 349.062 87.3468 350.144 88.4868C351.199 89.5969 351.801 90.9585 351.801 92.76H353.801ZM308.841 58.84C308.841 45.8102 320.357 36 337.121 36V34C319.646 34 306.841 44.3498 306.841 58.84H308.841ZM337.121 36C351.34 36 360.909 42.541 365.683 51.3178L367.44 50.3622C362.293 40.899 352.023 34 337.121 34V36ZM366.069 49.9696L353.909 56.8496L354.894 58.5903L367.054 51.7103L366.069 49.9696ZM355.3 57.2812C351.712 49.9345 344.864 47.44 337.441 47.44V49.44C344.419 49.44 350.371 51.7455 353.503 58.1588L355.3 57.2812ZM337.441 47.44C333.601 47.44 329.952 48.4396 327.233 50.3171C324.495 52.2077 322.681 55.0126 322.681 58.52H324.681C324.681 55.7874 326.067 53.5523 328.369 51.9629C330.69 50.3604 333.921 49.44 337.441 49.44V47.44ZM322.681 58.52C322.681 60.7876 323.49 62.6024 324.895 64.0528C326.27 65.4728 328.18 66.5092 330.348 67.3411C334.639 68.9877 340.415 69.9889 345.921 71.3507C351.525 72.7368 356.963 74.5124 360.998 77.6883C364.97 80.8144 367.641 85.3437 367.641 92.44H369.641C369.641 84.7363 366.693 79.6256 362.235 76.1167C357.84 72.6576 352.037 70.8032 346.401 69.4092C340.668 67.9911 335.204 67.0623 331.065 65.4739C329.017 64.6883 327.415 63.7809 326.332 62.6616C325.277 61.5726 324.681 60.2524 324.681 58.52H322.681ZM367.641 92.44C367.641 99.5205 364.228 105.319 358.765 109.377C353.285 113.449 345.743 115.76 337.601 115.76V117.76C346.099 117.76 354.078 115.351 359.958 110.983C365.855 106.601 369.641 100.239 369.641 92.44H367.641ZM388.683 50.36H389.683V49.36H388.683V50.36ZM373.163 50.36H372.163V51.36H373.163V50.36ZM373.163 36.6V35.6H372.163V36.6H373.163ZM388.683 36.6V37.6H389.683V36.6H388.683ZM388.683 16.28V15.28H387.683V16.28H388.683ZM404.523 16.28H405.523V15.28H404.523V16.28ZM404.523 36.6H403.523V37.6H404.523V36.6ZM434.603 36.6H435.603V35.6H434.603V36.6ZM434.603 50.36V51.36H435.603V50.36H434.603ZM404.523 50.36V49.36H403.523V50.36H404.523ZM434.603 98.04H435.603V96.1062L434.024 97.224L434.603 98.04ZM434.603 112.6L435.165 113.427L435.603 113.129V112.6H434.603ZM418.602 116.08C409.059 116.08 401.863 113.075 397.048 107.992C392.225 102.901 389.683 95.6108 389.683 86.84H387.683C387.683 95.9892 390.34 103.819 395.597 109.368C400.862 114.925 408.626 118.08 418.602 118.08V116.08ZM389.683 86.84V50.36H387.683V86.84H389.683ZM388.683 49.36H373.163V51.36H388.683V49.36ZM374.163 50.36V36.6H372.163V50.36H374.163ZM373.163 37.6H388.683V35.6H373.163V37.6ZM389.683 36.6V16.28H387.683V36.6H389.683ZM388.683 17.28H404.523V15.28H388.683V17.28ZM403.523 16.28V36.6H405.523V16.28H403.523ZM404.523 37.6H434.603V35.6H404.523V37.6ZM433.603 36.6V50.36H435.603V36.6H433.603ZM434.603 49.36H404.523V51.36H434.603V49.36ZM403.523 50.36V86.36H405.523V50.36H403.523ZM403.523 86.36C403.523 91.6774 405.104 96.0277 408.023 99.0541C410.944 102.084 415.103 103.68 420.043 103.68V101.68C415.542 101.68 411.941 100.236 409.462 97.6659C406.981 95.0923 405.523 91.2826 405.523 86.36H403.523ZM420.043 103.68C425.378 103.68 431.179 101.69 435.181 98.856L434.024 97.224C430.346 99.8295 424.947 101.68 420.043 101.68V103.68ZM433.603 98.04V112.6H435.603V98.04H433.603ZM434.04 111.773C430.234 114.361 424.198 116.08 418.602 116.08V118.08C424.527 118.08 430.971 116.279 435.165 113.427L434.04 111.773ZM527.151 115V116H528.151V115H527.151ZM512.111 115H511.111V116H512.111V115ZM512.111 101.24H513.111V97.7132L511.26 100.715L512.111 101.24ZM482.991 115.92C460.885 115.92 444.631 97.8712 444.631 75.64H442.631C442.631 98.8488 459.658 117.92 482.991 117.92V115.92ZM444.631 75.64C444.631 53.7948 462.101 35.68 485.391 35.68V33.68C461.002 33.68 442.631 52.6852 442.631 75.64H444.631ZM485.391 35.68C508.539 35.68 526.151 52.8526 526.151 75.64H528.151C528.151 51.7074 509.603 33.68 485.391 33.68V35.68ZM526.151 75.64V115H528.151V75.64H526.151ZM527.151 114H512.111V116H527.151V114ZM513.111 115V101.24H511.111V115H513.111ZM511.26 100.715C505.527 110.012 495.453 115.92 482.991 115.92V117.92C496.129 117.92 506.856 111.668 512.962 101.765L511.26 100.715ZM485.391 102.88C500.684 102.88 512.311 90.5721 512.311 75.8H510.311C510.311 89.5079 499.539 100.88 485.391 100.88V102.88ZM512.311 75.8C512.311 60.8719 500.687 48.56 485.391 48.56V50.56C499.535 50.56 510.311 61.9281 510.311 75.8H512.311ZM485.391 48.56C470.259 48.56 458.471 60.8678 458.471 75.8H460.471C460.471 61.9322 471.403 50.56 485.391 50.56V48.56ZM458.471 75.8C458.471 90.5762 470.263 102.88 485.391 102.88V100.88C471.4 100.88 460.471 89.5038 460.471 75.8H458.471ZM560.881 115V116H561.881V115H560.881ZM545.041 115H544.041V116H545.041V115ZM590.481 37.88H591.481V37.2508L590.914 36.9785L590.481 37.88ZM590.481 53.56L589.977 54.4238L591.481 55.301V53.56H590.481ZM560.881 114H545.041V116H560.881V114ZM546.041 115V68.28H544.041V115H546.041ZM546.041 68.28C546.041 58.9433 548.708 50.88 553.789 45.1644C558.855 39.4651 566.408 36 576.401 36V34C565.914 34 557.788 37.6549 552.294 43.8356C546.814 50 544.041 58.5767 544.041 68.28H546.041ZM576.401 36C581.25 36 586.214 36.941 590.049 38.7815L590.914 36.9785C586.748 34.979 581.473 34 576.401 34V36ZM589.481 37.88V53.56H591.481V37.88H589.481ZM590.985 52.6962C586.983 50.3615 582.327 49.2 577.841 49.2V51.2C581.996 51.2 586.3 52.2785 589.977 54.4238L590.985 52.6962ZM577.841 49.2C572.322 49.2 567.796 51.0892 564.658 54.5705C561.532 58.0391 559.881 62.9807 559.881 68.92H561.881C561.881 63.3393 563.43 58.9209 566.144 55.9095C568.847 52.9108 572.8 51.2 577.841 51.2V49.2ZM559.881 68.92V115H561.881V68.92H559.881ZM607.876 50.36H608.876V49.36H607.876V50.36ZM592.356 50.36H591.356V51.36H592.356V50.36ZM592.356 36.6V35.6H591.356V36.6H592.356ZM607.876 36.6V37.6H608.876V36.6H607.876ZM607.876 16.28V15.28H606.876V16.28H607.876ZM623.716 16.28H624.716V15.28H623.716V16.28ZM623.716 36.6H622.716V37.6H623.716V36.6ZM653.796 36.6H654.796V35.6H653.796V36.6ZM653.796 50.36V51.36H654.796V50.36H653.796ZM623.716 50.36V49.36H622.716V50.36H623.716ZM653.796 98.04H654.796V96.1062L653.218 97.224L653.796 98.04ZM653.796 112.6L654.359 113.427L654.796 113.129V112.6H653.796ZM637.796 116.08C628.253 116.08 621.057 113.075 616.242 107.992C611.419 102.901 608.876 95.6108 608.876 86.84H606.876C606.876 95.9892 609.533 103.819 614.79 109.368C620.055 114.925 627.819 118.08 637.796 118.08V116.08ZM608.876 86.84V50.36H606.876V86.84H608.876ZM607.876 49.36H592.356V51.36H607.876V49.36ZM593.356 50.36V36.6H591.356V50.36H593.356ZM592.356 37.6H607.876V35.6H592.356V37.6ZM608.876 36.6V16.28H606.876V36.6H608.876ZM607.876 17.28H623.716V15.28H607.876V17.28ZM622.716 16.28V36.6H624.716V16.28H622.716ZM623.716 37.6H653.796V35.6H623.716V37.6ZM652.796 36.6V50.36H654.796V36.6H652.796ZM653.796 49.36H623.716V51.36H653.796V49.36ZM622.716 50.36V86.36H624.716V50.36H622.716ZM622.716 86.36C622.716 91.6774 624.298 96.0277 627.216 99.0541C630.138 102.084 634.297 103.68 639.236 103.68V101.68C634.736 101.68 631.134 100.236 628.656 97.6659C626.174 95.0923 624.716 91.2826 624.716 86.36H622.716ZM639.236 103.68C644.572 103.68 650.373 101.69 654.374 98.856L653.218 97.224C649.54 99.8295 644.14 101.68 639.236 101.68V103.68ZM652.796 98.04V112.6H654.796V98.04H652.796ZM653.234 111.773C649.427 114.361 643.392 116.08 637.796 116.08V118.08C643.72 118.08 650.165 116.279 654.359 113.427L653.234 111.773ZM740.905 79.8V80.8H741.905V79.8H740.905ZM678.185 79.8V78.8H677.045L677.193 79.9298L678.185 79.8ZM727.145 89.88L727.602 88.9903L726.728 88.5422L726.264 89.4069L727.145 89.88ZM739.305 96.12L740.195 96.5757L740.65 95.6864L739.762 95.2303L739.305 96.12ZM678.825 69.56L677.834 69.4243L677.679 70.56H678.825V69.56ZM725.065 69.56V70.56H726.118L726.064 69.5088L725.065 69.56ZM704.425 115.76C681.127 115.76 663.825 98.9175 663.825 75.32H661.825C661.825 100.042 680.043 117.76 704.425 117.76V115.76ZM663.825 75.32C663.825 53.2538 679.594 35.36 702.505 35.36V33.36C678.376 33.36 661.825 52.2662 661.825 75.32H663.825ZM702.505 35.36C714.092 35.36 723.422 39.5419 729.858 46.3472C736.302 53.1597 739.905 62.6639 739.905 73.4H741.905C741.905 62.2161 738.148 52.2003 731.311 44.9728C724.468 37.7381 714.598 33.36 702.505 33.36V35.36ZM739.905 73.4V79.8H741.905V73.4H739.905ZM740.905 78.8H678.185V80.8H740.905V78.8ZM677.193 79.9298C679.017 93.8555 689.671 103.68 704.265 103.68V101.68C690.699 101.68 680.873 92.6245 679.177 79.6702L677.193 79.9298ZM704.265 103.68C714.16 103.68 723.18 99.3773 728.026 90.3531L726.264 89.4069C721.83 97.6627 713.57 101.68 704.265 101.68V103.68ZM726.688 90.7697L738.848 97.0097L739.762 95.2303L727.602 88.9903L726.688 90.7697ZM738.415 95.6643C731.719 108.744 719.44 115.76 704.425 115.76V117.76C720.13 117.76 733.131 110.376 740.195 96.5757L738.415 95.6643ZM678.825 70.56H725.065V68.56H678.825V70.56ZM726.064 69.5088C725.731 63.0301 723.191 57.5374 719.004 53.6658C714.818 49.7958 709.047 47.6 702.345 47.6V49.6C708.603 49.6 713.872 51.6442 717.646 55.1342C721.419 58.6226 723.759 63.6099 724.066 69.6112L726.064 69.5088ZM702.345 47.6C688.501 47.6 679.493 57.3159 677.834 69.4243L679.816 69.6957C681.357 58.4441 689.629 49.6 702.345 49.6V47.6ZM817.576 46.36L816.836 47.0327L818.567 48.9367L818.576 46.3635L817.576 46.36ZM817.736 0.599995V-0.400005H816.74L816.736 0.596498L817.736 0.599995ZM833.576 0.599995H834.576V-0.400005H833.576V0.599995ZM791.816 115.92C768.523 115.92 751.056 97.9627 751.056 75.96H749.056C749.056 99.0773 767.429 117.92 791.816 117.92V115.92ZM751.056 75.96C751.056 52.6645 767.896 35.68 791.016 35.68V33.68C766.776 33.68 749.056 51.5755 749.056 75.96H751.056ZM791.016 35.68C801.284 35.68 810.618 40.193 816.836 47.0327L818.316 45.6873C811.734 38.447 801.869 33.68 791.016 33.68V35.68ZM818.576 46.3635L818.736 0.603491L816.736 0.596498L816.576 46.3565L818.576 46.3635ZM817.736 1.59999H833.576V-0.400005H817.736V1.59999ZM832.576 0.599995V75.96H834.576V0.599995H832.576ZM832.576 75.96C832.576 98.59 814.962 115.92 791.816 115.92V117.92C816.031 117.92 834.576 99.73 834.576 75.96H832.576ZM791.816 103.04C807.112 103.04 818.736 90.7281 818.736 75.8H816.736C816.736 89.6719 805.96 101.04 791.816 101.04V103.04ZM818.736 75.8C818.736 61.0279 807.109 48.72 791.816 48.72V50.72C805.964 50.72 816.736 62.0921 816.736 75.8H818.736ZM791.816 48.72C776.688 48.72 764.896 61.0238 764.896 75.8H766.896C766.896 62.0962 777.825 50.72 791.816 50.72V48.72ZM764.896 75.8C764.896 90.7322 776.684 103.04 791.816 103.04V101.04C777.828 101.04 766.896 89.6678 766.896 75.8H764.896ZM898.051 50.36H899.051V49.36H898.051V50.36ZM882.531 50.36H881.531V51.36H882.531V50.36ZM882.531 36.6V35.6H881.531V36.6H882.531ZM898.051 36.6V37.6H899.051V36.6H898.051ZM898.051 16.28V15.28H897.051V16.28H898.051ZM913.891 16.28H914.891V15.28H913.891V16.28ZM913.891 36.6H912.891V37.6H913.891V36.6ZM943.971 36.6H944.971V35.6H943.971V36.6ZM943.971 50.36V51.36H944.971V50.36H943.971ZM913.891 50.36V49.36H912.891V50.36H913.891ZM943.971 98.04H944.971V96.1062L943.393 97.224L943.971 98.04ZM943.971 112.6L944.534 113.427L944.971 113.129V112.6H943.971ZM927.971 116.08C918.428 116.08 911.232 113.075 906.417 107.992C901.594 102.901 899.051 95.6108 899.051 86.84H897.051C897.051 95.9892 899.708 103.819 904.965 109.368C910.23 114.925 917.994 118.08 927.971 118.08V116.08ZM899.051 86.84V50.36H897.051V86.84H899.051ZM898.051 49.36H882.531V51.36H898.051V49.36ZM883.531 50.36V36.6H881.531V50.36H883.531ZM882.531 37.6H898.051V35.6H882.531V37.6ZM899.051 36.6V16.28H897.051V36.6H899.051ZM898.051 17.28H913.891V15.28H898.051V17.28ZM912.891 16.28V36.6H914.891V16.28H912.891ZM913.891 37.6H943.971V35.6H913.891V37.6ZM942.971 36.6V50.36H944.971V36.6H942.971ZM943.971 49.36H913.891V51.36H943.971V49.36ZM912.891 50.36V86.36H914.891V50.36H912.891ZM912.891 86.36C912.891 91.6774 914.473 96.0277 917.391 99.0541C920.313 102.084 924.472 103.68 929.411 103.68V101.68C924.911 101.68 921.309 100.236 918.831 97.6659C916.349 95.0923 914.891 91.2826 914.891 86.36H912.891ZM929.411 103.68C934.747 103.68 940.548 101.69 944.549 98.856L943.393 97.224C939.715 99.8295 934.315 101.68 929.411 101.68V103.68ZM942.971 98.04V112.6H944.971V98.04H942.971ZM943.409 111.773C939.603 114.361 933.567 116.08 927.971 116.08V118.08C933.895 118.08 940.34 116.279 944.534 113.427L943.409 111.773ZM994.92 115.92C971.787 115.92 954 97.8027 954 75.64H952C952 98.9173 970.693 117.92 994.92 117.92V115.92ZM954 75.64C954 53.6473 971.937 35.68 994.92 35.68V33.68C970.863 33.68 952 52.5126 952 75.64H954ZM994.92 35.68C1018.05 35.68 1035.52 53.7923 1035.52 75.64H1037.52C1037.52 52.6877 1019.15 33.68 994.92 33.68V35.68ZM1035.52 75.64C1035.52 97.8102 1017.89 115.92 994.92 115.92V117.92C1018.99 117.92 1037.52 98.9098 1037.52 75.64H1035.52ZM994.92 102.88C1010.06 102.88 1021.68 90.568 1021.68 75.8H1019.68C1019.68 89.512 1008.9 100.88 994.92 100.88V102.88ZM1021.68 75.8C1021.68 60.8761 1010.06 48.56 994.92 48.56V50.56C1008.9 50.56 1019.68 61.9239 1019.68 75.8H1021.68ZM994.92 48.56C979.632 48.56 967.84 60.8638 967.84 75.8H969.84C969.84 61.9362 980.768 50.56 994.92 50.56V48.56ZM967.84 75.8C967.84 90.5802 979.636 102.88 994.92 102.88V100.88C980.764 100.88 969.84 89.4998 969.84 75.8H967.84ZM1111.97 46.36L1111.23 47.0327L1112.96 48.9367L1112.97 46.3635L1111.97 46.36ZM1112.13 0.599995V-0.400005H1111.13L1111.13 0.596498L1112.13 0.599995ZM1127.97 0.599995H1128.97V-0.400005H1127.97V0.599995ZM1086.21 115.92C1062.92 115.92 1045.45 97.9627 1045.45 75.96H1043.45C1043.45 99.0773 1061.82 117.92 1086.21 117.92V115.92ZM1045.45 75.96C1045.45 52.6645 1062.29 35.68 1085.41 35.68V33.68C1061.17 33.68 1043.45 51.5755 1043.45 75.96H1045.45ZM1085.41 35.68C1095.68 35.68 1105.01 40.193 1111.23 47.0327L1112.71 45.6873C1106.13 38.447 1096.26 33.68 1085.41 33.68V35.68ZM1112.97 46.3635L1113.13 0.603491L1111.13 0.596498L1110.97 46.3565L1112.97 46.3635ZM1112.13 1.59999H1127.97V-0.400005H1112.13V1.59999ZM1126.97 0.599995V75.96H1128.97V0.599995H1126.97ZM1126.97 75.96C1126.97 98.59 1109.36 115.92 1086.21 115.92V117.92C1110.42 117.92 1128.97 99.73 1128.97 75.96H1126.97ZM1086.21 103.04C1101.51 103.04 1113.13 90.7281 1113.13 75.8H1111.13C1111.13 89.6719 1100.35 101.04 1086.21 101.04V103.04ZM1113.13 75.8C1113.13 61.0279 1101.5 48.72 1086.21 48.72V50.72C1100.36 50.72 1111.13 62.0921 1111.13 75.8H1113.13ZM1086.21 48.72C1071.08 48.72 1059.29 61.0238 1059.29 75.8H1061.29C1061.29 62.0962 1072.22 50.72 1086.21 50.72V48.72ZM1059.29 75.8C1059.29 90.7322 1071.08 103.04 1086.21 103.04V101.04C1072.22 101.04 1061.29 89.6678 1061.29 75.8H1059.29ZM1224.42 115V116H1225.42V115H1224.42ZM1209.38 115H1208.38V116H1209.38V115ZM1209.38 101.24H1210.38V97.7132L1208.53 100.715L1209.38 101.24ZM1180.26 115.92C1158.15 115.92 1141.9 97.8712 1141.9 75.64H1139.9C1139.9 98.8488 1156.93 117.92 1180.26 117.92V115.92ZM1141.9 75.64C1141.9 53.7948 1159.37 35.68 1182.66 35.68V33.68C1158.27 33.68 1139.9 52.6852 1139.9 75.64H1141.9ZM1182.66 35.68C1205.81 35.68 1223.42 52.8526 1223.42 75.64H1225.42C1225.42 51.7074 1206.87 33.68 1182.66 33.68V35.68ZM1223.42 75.64V115H1225.42V75.64H1223.42ZM1224.42 114H1209.38V116H1224.42V114ZM1210.38 115V101.24H1208.38V115H1210.38ZM1208.53 100.715C1202.8 110.012 1192.72 115.92 1180.26 115.92V117.92C1193.4 117.92 1204.12 111.668 1210.23 101.765L1208.53 100.715ZM1182.66 102.88C1197.95 102.88 1209.58 90.5721 1209.58 75.8H1207.58C1207.58 89.5079 1196.81 100.88 1182.66 100.88V102.88ZM1209.58 75.8C1209.58 60.8719 1197.96 48.56 1182.66 48.56V50.56C1196.8 50.56 1207.58 61.9281 1207.58 75.8H1209.58ZM1182.66 48.56C1167.53 48.56 1155.74 60.8678 1155.74 75.8H1157.74C1157.74 61.9322 1168.67 50.56 1182.66 50.56V48.56ZM1155.74 75.8C1155.74 90.5762 1167.53 102.88 1182.66 102.88V100.88C1168.67 100.88 1157.74 89.5038 1157.74 75.8H1155.74ZM1240.71 132.12L1240.23 131.243L1239.38 131.708L1239.82 132.571L1240.71 132.12ZM1253.83 124.92L1254.71 124.453L1254.24 123.555L1253.35 124.043L1253.83 124.92ZM1303.11 102.04H1304.11L1302.23 101.574L1303.11 102.04ZM1242.63 36.6V35.6H1241.63V36.6H1242.63ZM1258.31 36.6H1259.31V35.6H1258.31V36.6ZM1302.95 36.6V35.6H1301.95V36.6H1302.95ZM1318.95 36.6H1319.95V35.6H1318.95V36.6ZM1278.15 152.08C1261.8 152.08 1248.44 145.184 1241.6 131.669L1239.82 132.571C1247.06 146.896 1261.22 154.08 1278.15 154.08V152.08ZM1241.19 132.997L1254.31 125.797L1253.35 124.043L1240.23 131.243L1241.19 132.997ZM1252.95 125.387C1257.62 134.237 1266.79 139.36 1277.83 139.36V137.36C1267.43 137.36 1259 132.563 1254.71 124.453L1252.95 125.387ZM1277.83 139.36C1286.43 139.36 1293.04 136.124 1297.49 130.629C1301.91 125.162 1304.11 117.557 1304.11 108.92H1302.11C1302.11 117.243 1299.99 124.358 1295.93 129.371C1291.9 134.356 1285.87 137.36 1277.83 137.36V139.36ZM1304.11 108.92V102.04H1302.11V108.92H1304.11ZM1302.23 101.574C1297.77 110.027 1289.8 115.12 1278.31 115.12V117.12C1290.5 117.12 1299.17 111.653 1303.99 102.506L1302.23 101.574ZM1278.31 115.12C1266.54 115.12 1257.92 111.247 1252.23 104.666C1246.51 98.0622 1243.63 88.6038 1243.63 77.24H1241.63C1241.63 88.9162 1244.59 98.8978 1250.71 105.974C1256.86 113.073 1266.08 117.12 1278.31 117.12V115.12ZM1243.63 77.24V36.6H1241.63V77.24H1243.63ZM1242.63 37.6H1258.31V35.6H1242.63V37.6ZM1257.31 36.6V76.44H1259.31V36.6H1257.31ZM1257.31 76.44C1257.31 83.963 1259.27 90.4169 1263.17 95.007C1267.08 99.6194 1272.86 102.24 1280.23 102.24V100.24C1273.36 100.24 1268.18 97.8206 1264.69 93.713C1261.19 89.5831 1259.31 83.637 1259.31 76.44H1257.31ZM1280.23 102.24C1294.69 102.24 1303.95 90.1092 1303.95 75.32H1301.95C1301.95 89.3308 1293.29 100.24 1280.23 100.24V102.24ZM1303.95 75.32V36.6H1301.95V75.32H1303.95ZM1302.95 37.6H1318.95V35.6H1302.95V37.6ZM1317.95 36.6V108.76H1319.95V36.6H1317.95ZM1317.95 108.76C1317.95 121.689 1314.17 132.513 1307.35 140.091C1300.54 147.657 1290.62 152.08 1278.15 152.08V154.08C1291.12 154.08 1301.6 149.463 1308.83 141.429C1316.05 133.407 1319.95 122.071 1319.95 108.76H1317.95Z" fill="#E2D26C" mask="url(#path-1-outside-1_4788_88)"/>
</svg>
