<svg width="1327" height="162" viewBox="0 0 1327 162" fill="none" xmlns="http://www.w3.org/2000/svg">
<g filter="url(#filter0_d_4788_87)">
<mask id="path-1-outside-1_4788_87" maskUnits="userSpaceOnUse" x="3" y="-1" width="1321" height="156" fill="black">
<rect fill="white" x="3" y="-1" width="1321" height="156"/>
<path d="M58.96 116.92C28.24 116.92 4.4 92.12 4.4 61.24C4.4 31 28.08 6.03999 58.96 6.03999C76.72 6.03999 94 14.68 102.32 31L89.04 38.68C82.64 27.64 71.44 21.4 58.32 21.4C37.2 21.4 21.2 39.16 21.2 61.56C21.2 84.44 37.2 101.88 58.96 101.88C71.76 101.88 82.16 96.92 87.28 90.84V65.08H103.12V96.44C95.76 107.16 79.92 116.92 58.96 116.92ZM154.794 116.76C130.954 116.76 113.194 99.48 113.194 75.32C113.194 52.76 129.354 34.36 152.874 34.36C176.554 34.36 191.274 51.48 191.274 73.4V79.8H128.554C130.314 93.24 140.554 102.68 154.634 102.68C164.234 102.68 172.874 98.52 177.514 89.88L189.674 96.12C182.794 109.56 170.154 116.76 154.794 116.76ZM129.194 69.56H175.434C174.794 57.08 165.674 48.6 152.714 48.6C139.434 48.6 130.794 57.88 129.194 69.56ZM241.065 117.08C221.545 117.08 211.145 104.76 211.145 86.84V50.36H195.625V36.6H211.145V16.28H226.985V36.6H257.065V50.36H226.985V86.36C226.985 96.6 233.065 102.68 242.505 102.68C247.625 102.68 253.225 100.76 257.065 98.04V112.6C253.065 115.32 246.825 117.08 241.065 117.08ZM341.601 116.76C327.041 116.76 315.841 111 309.761 99.32L321.921 92.6C325.921 100.44 332.321 103.32 340.961 103.32C349.921 103.32 356.801 99.64 356.801 92.76C356.801 76.28 311.841 88.76 311.841 58.84C311.841 45.08 324.001 35 341.121 35C355.681 35 365.601 41.72 370.561 50.84L358.401 57.72C355.041 50.84 348.641 48.44 341.441 48.44C334.081 48.44 327.681 52.28 327.681 58.52C327.681 74.52 372.641 62.84 372.641 92.44C372.641 107.32 358.241 116.76 341.601 116.76ZM422.602 117.08C403.083 117.08 392.683 104.76 392.683 86.84V50.36H377.163V36.6H392.683V16.28H408.523V36.6H438.603V50.36H408.523V86.36C408.523 96.6 414.603 102.68 424.043 102.68C429.163 102.68 434.763 100.76 438.603 98.04V112.6C434.603 115.32 428.363 117.08 422.602 117.08ZM486.991 116.92C464.271 116.92 447.631 98.36 447.631 75.64C447.631 53.24 465.551 34.68 489.391 34.68C513.071 34.68 531.151 52.28 531.151 75.64V115H516.111V101.24C510.191 110.84 499.791 116.92 486.991 116.92ZM489.391 101.88C504.111 101.88 515.311 90.04 515.311 75.8C515.311 61.4 504.111 49.56 489.391 49.56C474.831 49.56 463.471 61.4 463.471 75.8C463.471 90.04 474.831 101.88 489.391 101.88ZM564.881 115H549.041V68.28C549.041 49.24 559.921 35 580.401 35C585.361 35 590.481 35.96 594.481 37.88V53.56C590.641 51.32 586.161 50.2 581.841 50.2C571.281 50.2 564.881 57.4 564.881 68.92V115ZM641.796 117.08C622.276 117.08 611.876 104.76 611.876 86.84V50.36H596.356V36.6H611.876V16.28H627.716V36.6H657.796V50.36H627.716V86.36C627.716 96.6 633.796 102.68 643.236 102.68C648.356 102.68 653.956 100.76 657.796 98.04V112.6C653.796 115.32 647.556 117.08 641.796 117.08ZM708.425 116.76C684.585 116.76 666.825 99.48 666.825 75.32C666.825 52.76 682.985 34.36 706.505 34.36C730.185 34.36 744.905 51.48 744.905 73.4V79.8H682.185C683.945 93.24 694.185 102.68 708.265 102.68C717.865 102.68 726.505 98.52 731.145 89.88L743.305 96.12C736.425 109.56 723.785 116.76 708.425 116.76ZM682.825 69.56H729.065C728.425 57.08 719.305 48.6 706.345 48.6C693.065 48.6 684.425 57.88 682.825 69.56ZM795.816 116.92C771.976 116.92 754.056 98.52 754.056 75.96C754.056 52.12 771.336 34.68 795.016 34.68C805.576 34.68 815.176 39.32 821.576 46.36L821.736 0.599995H837.576V75.96C837.576 99.16 819.496 116.92 795.816 116.92ZM795.816 102.04C810.536 102.04 821.736 90.2 821.736 75.8C821.736 61.56 810.536 49.72 795.816 49.72C781.256 49.72 769.896 61.56 769.896 75.8C769.896 90.2 781.256 102.04 795.816 102.04ZM931.971 117.08C912.451 117.08 902.051 104.76 902.051 86.84V50.36H886.531V36.6H902.051V16.28H917.891V36.6H947.971V50.36H917.891V86.36C917.891 96.6 923.971 102.68 933.411 102.68C938.531 102.68 944.131 100.76 947.971 98.04V112.6C943.971 115.32 937.731 117.08 931.971 117.08ZM998.92 116.92C975.24 116.92 957 98.36 957 75.64C957 53.08 975.4 34.68 998.92 34.68C1022.6 34.68 1040.52 53.24 1040.52 75.64C1040.52 98.36 1022.44 116.92 998.92 116.92ZM998.92 101.88C1013.48 101.88 1024.68 90.04 1024.68 75.8C1024.68 61.4 1013.48 49.56 998.92 49.56C984.2 49.56 972.84 61.4 972.84 75.8C972.84 90.04 984.2 101.88 998.92 101.88ZM1090.21 116.92C1066.37 116.92 1048.45 98.52 1048.45 75.96C1048.45 52.12 1065.73 34.68 1089.41 34.68C1099.97 34.68 1109.57 39.32 1115.97 46.36L1116.13 0.599995H1131.97V75.96C1131.97 99.16 1113.89 116.92 1090.21 116.92ZM1090.21 102.04C1104.93 102.04 1116.13 90.2 1116.13 75.8C1116.13 61.56 1104.93 49.72 1090.21 49.72C1075.65 49.72 1064.29 61.56 1064.29 75.8C1064.29 90.2 1075.65 102.04 1090.21 102.04ZM1184.26 116.92C1161.54 116.92 1144.9 98.36 1144.9 75.64C1144.9 53.24 1162.82 34.68 1186.66 34.68C1210.34 34.68 1228.42 52.28 1228.42 75.64V115H1213.38V101.24C1207.46 110.84 1197.06 116.92 1184.26 116.92ZM1186.66 101.88C1201.38 101.88 1212.58 90.04 1212.58 75.8C1212.58 61.4 1201.38 49.56 1186.66 49.56C1172.1 49.56 1160.74 61.4 1160.74 75.8C1160.74 90.04 1172.1 101.88 1186.66 101.88ZM1282.15 153.08C1265.51 153.08 1251.75 146.04 1244.71 132.12L1257.83 124.92C1262.31 133.4 1271.11 138.36 1281.83 138.36C1298.47 138.36 1307.11 125.88 1307.11 108.92V102.04C1302.47 110.84 1294.15 116.12 1282.31 116.12C1258.31 116.12 1246.63 100.28 1246.63 77.24V36.6H1262.31V76.44C1262.31 91.16 1269.99 101.24 1284.23 101.24C1297.99 101.24 1306.95 89.72 1306.95 75.32V36.6H1322.95V108.76C1322.95 135 1307.59 153.08 1282.15 153.08Z"/>
</mask>
<path d="M102.32 31L102.821 31.8657L103.642 31.3908L103.211 30.5458L102.32 31ZM89.04 38.68L88.1749 39.1815L88.6759 40.0458L89.5406 39.5457L89.04 38.68ZM87.28 90.84L88.0449 91.4841L88.28 91.205V90.84H87.28ZM87.28 65.08V64.08H86.28V65.08H87.28ZM103.12 65.08H104.12V64.08H103.12V65.08ZM103.12 96.44L103.944 97.006L104.12 96.7502V96.44H103.12ZM58.96 115.92C28.8168 115.92 5.4 91.5926 5.4 61.24H3.4C3.4 92.6474 27.6632 117.92 58.96 117.92V115.92ZM5.4 61.24C5.4 31.5293 28.655 7.03999 58.96 7.03999V5.03999C27.505 5.03999 3.4 30.4707 3.4 61.24H5.4ZM58.96 7.03999C76.4148 7.03999 93.3098 15.5278 101.429 31.4542L103.211 30.5458C94.6902 13.8322 77.0252 5.03999 58.96 5.03999V7.03999ZM101.819 30.1343L88.5394 37.8143L89.5406 39.5457L102.821 31.8657L101.819 30.1343ZM89.9051 38.1785C83.3176 26.8149 71.7789 20.4 58.32 20.4V22.4C71.1011 22.4 81.9625 28.4651 88.1749 39.1815L89.9051 38.1785ZM58.32 20.4C36.568 20.4 20.2 38.6909 20.2 61.56H22.2C22.2 39.6291 37.832 22.4 58.32 22.4V20.4ZM20.2 61.56C20.2 84.9235 36.5813 102.88 58.96 102.88V100.88C37.8187 100.88 22.2 83.9565 22.2 61.56H20.2ZM58.96 102.88C71.9879 102.88 82.6956 97.8365 88.0449 91.4841L86.5151 90.1959C81.6244 96.0035 71.5321 100.88 58.96 100.88V102.88ZM88.28 90.84V65.08H86.28V90.84H88.28ZM87.28 66.08H103.12V64.08H87.28V66.08ZM102.12 65.08V96.44H104.12V65.08H102.12ZM102.296 95.874C95.137 106.301 79.6176 115.92 58.96 115.92V117.92C80.2224 117.92 96.383 108.019 103.944 97.006L102.296 95.874ZM191.274 79.8V80.8H192.274V79.8H191.274ZM128.554 79.8V78.8H127.414L127.562 79.9298L128.554 79.8ZM177.514 89.88L177.97 88.9903L177.097 88.5422L176.633 89.4069L177.514 89.88ZM189.674 96.12L190.564 96.5757L191.019 95.6864L190.13 95.2303L189.674 96.12ZM129.194 69.56L128.203 69.4243L128.047 70.56H129.194V69.56ZM175.434 69.56V70.56H176.486L176.432 69.5088L175.434 69.56ZM154.794 115.76C131.496 115.76 114.194 98.9175 114.194 75.32H112.194C112.194 100.042 130.412 117.76 154.794 117.76V115.76ZM114.194 75.32C114.194 53.2538 129.963 35.36 152.874 35.36V33.36C128.745 33.36 112.194 52.2662 112.194 75.32H114.194ZM152.874 35.36C164.46 35.36 173.79 39.5419 180.227 46.3472C186.671 53.1597 190.274 62.6639 190.274 73.4H192.274C192.274 62.2161 188.516 52.2003 181.68 44.9728C174.837 37.7381 164.967 33.36 152.874 33.36V35.36ZM190.274 73.4V79.8H192.274V73.4H190.274ZM191.274 78.8H128.554V80.8H191.274V78.8ZM127.562 79.9298C129.386 93.8555 140.039 103.68 154.634 103.68V101.68C141.068 101.68 131.242 92.6245 129.545 79.6702L127.562 79.9298ZM154.634 103.68C164.529 103.68 173.548 99.3773 178.395 90.3531L176.633 89.4069C172.199 97.6627 163.939 101.68 154.634 101.68V103.68ZM177.057 90.7697L189.217 97.0097L190.13 95.2303L177.97 88.9903L177.057 90.7697ZM188.784 95.6643C182.088 108.744 169.808 115.76 154.794 115.76V117.76C170.499 117.76 183.5 110.376 190.564 96.5757L188.784 95.6643ZM129.194 70.56H175.434V68.56H129.194V70.56ZM176.432 69.5088C176.1 63.0301 173.56 57.5374 169.373 53.6658C165.187 49.7958 159.416 47.6 152.714 47.6V49.6C158.972 49.6 164.24 51.6442 168.015 55.1342C171.788 58.6226 174.127 63.6099 174.435 69.6112L176.432 69.5088ZM152.714 47.6C138.869 47.6 129.862 57.3159 128.203 69.4243L130.184 69.6957C131.726 58.4441 139.998 49.6 152.714 49.6V47.6ZM211.145 50.36H212.145V49.36H211.145V50.36ZM195.625 50.36H194.625V51.36H195.625V50.36ZM195.625 36.6V35.6H194.625V36.6H195.625ZM211.145 36.6V37.6H212.145V36.6H211.145ZM211.145 16.28V15.28H210.145V16.28H211.145ZM226.985 16.28H227.985V15.28H226.985V16.28ZM226.985 36.6H225.985V37.6H226.985V36.6ZM257.065 36.6H258.065V35.6H257.065V36.6ZM257.065 50.36V51.36H258.065V50.36H257.065ZM226.985 50.36V49.36H225.985V50.36H226.985ZM257.065 98.04H258.065V96.1062L256.487 97.224L257.065 98.04ZM257.065 112.6L257.627 113.427L258.065 113.129V112.6H257.065ZM241.065 116.08C231.522 116.08 224.326 113.075 219.511 107.992C214.688 102.901 212.145 95.6108 212.145 86.84H210.145C210.145 95.9892 212.802 103.819 218.059 109.368C223.324 114.925 231.088 118.08 241.065 118.08V116.08ZM212.145 86.84V50.36H210.145V86.84H212.145ZM211.145 49.36H195.625V51.36H211.145V49.36ZM196.625 50.36V36.6H194.625V50.36H196.625ZM195.625 37.6H211.145V35.6H195.625V37.6ZM212.145 36.6V16.28H210.145V36.6H212.145ZM211.145 17.28H226.985V15.28H211.145V17.28ZM225.985 16.28V36.6H227.985V16.28H225.985ZM226.985 37.6H257.065V35.6H226.985V37.6ZM256.065 36.6V50.36H258.065V36.6H256.065ZM257.065 49.36H226.985V51.36H257.065V49.36ZM225.985 50.36V86.36H227.985V50.36H225.985ZM225.985 86.36C225.985 91.6774 227.567 96.0277 230.485 99.0541C233.407 102.084 237.566 103.68 242.505 103.68V101.68C238.004 101.68 234.403 100.236 231.925 97.6659C229.443 95.0923 227.985 91.2826 227.985 86.36H225.985ZM242.505 103.68C247.841 103.68 253.641 101.69 257.643 98.856L256.487 97.224C252.809 99.8295 247.409 101.68 242.505 101.68V103.68ZM256.065 98.04V112.6H258.065V98.04H256.065ZM256.503 111.773C252.696 114.361 246.661 116.08 241.065 116.08V118.08C246.989 118.08 253.434 116.279 257.627 113.427L256.503 111.773ZM309.761 99.32L309.278 98.4448L308.424 98.9165L308.874 99.7817L309.761 99.32ZM321.921 92.6L322.812 92.1455L322.342 91.2248L321.438 91.7248L321.921 92.6ZM370.561 50.84L371.054 51.7103L371.91 51.2261L371.44 50.3622L370.561 50.84ZM358.401 57.72L357.503 58.1588L357.969 59.1136L358.894 58.5903L358.401 57.72ZM341.601 115.76C327.331 115.76 316.521 110.14 310.648 98.8583L308.874 99.7817C315.162 111.86 326.751 117.76 341.601 117.76V115.76ZM310.245 100.195L322.405 93.4752L321.438 91.7248L309.278 98.4448L310.245 100.195ZM321.03 93.0545C323.111 97.1327 325.848 99.9738 329.23 101.782C332.599 103.583 336.535 104.32 340.961 104.32V102.32C336.747 102.32 333.164 101.617 330.173 100.018C327.195 98.4262 324.731 95.9073 322.812 92.1455L321.03 93.0545ZM340.961 104.32C345.559 104.32 349.723 103.379 352.772 101.467C355.859 99.5324 357.801 96.5939 357.801 92.76H355.801C355.801 95.8061 354.303 98.1476 351.71 99.7727C349.08 101.421 345.323 102.32 340.961 102.32V104.32ZM357.801 92.76C357.801 90.4415 356.999 88.5881 355.594 87.1095C354.218 85.6607 352.305 84.6131 350.134 83.7812C345.838 82.1351 340.06 81.1802 334.553 79.8673C328.948 78.5308 323.514 76.809 319.482 73.6572C315.515 70.5563 312.841 66.0199 312.841 58.84H310.841C310.841 66.6201 313.787 71.7437 318.25 75.2328C322.648 78.671 328.454 80.4692 334.089 81.8127C339.823 83.1798 345.285 84.0649 349.418 85.6488C351.462 86.4319 353.062 87.3468 354.144 88.4868C355.199 89.5969 355.801 90.9585 355.801 92.76H357.801ZM312.841 58.84C312.841 45.8102 324.357 36 341.121 36V34C323.646 34 310.841 44.3498 310.841 58.84H312.841ZM341.121 36C355.34 36 364.909 42.541 369.683 51.3178L371.44 50.3622C366.293 40.899 356.023 34 341.121 34V36ZM370.069 49.9696L357.909 56.8496L358.894 58.5903L371.054 51.7103L370.069 49.9696ZM359.3 57.2812C355.712 49.9345 348.864 47.44 341.441 47.44V49.44C348.419 49.44 354.371 51.7455 357.503 58.1588L359.3 57.2812ZM341.441 47.44C337.601 47.44 333.952 48.4396 331.233 50.3171C328.495 52.2077 326.681 55.0126 326.681 58.52H328.681C328.681 55.7874 330.067 53.5523 332.369 51.9629C334.69 50.3604 337.921 49.44 341.441 49.44V47.44ZM326.681 58.52C326.681 60.7876 327.49 62.6024 328.895 64.0528C330.27 65.4728 332.18 66.5092 334.348 67.3411C338.639 68.9877 344.415 69.9889 349.921 71.3507C355.525 72.7368 360.963 74.5124 364.998 77.6883C368.97 80.8144 371.641 85.3437 371.641 92.44H373.641C373.641 84.7363 370.693 79.6256 366.235 76.1167C361.84 72.6576 356.037 70.8032 350.401 69.4092C344.668 67.9911 339.204 67.0623 335.065 65.4739C333.017 64.6883 331.415 63.7809 330.332 62.6616C329.277 61.5726 328.681 60.2524 328.681 58.52H326.681ZM371.641 92.44C371.641 99.5205 368.228 105.319 362.765 109.377C357.285 113.449 349.743 115.76 341.601 115.76V117.76C350.099 117.76 358.078 115.351 363.958 110.983C369.855 106.601 373.641 100.239 373.641 92.44H371.641ZM392.683 50.36H393.683V49.36H392.683V50.36ZM377.163 50.36H376.163V51.36H377.163V50.36ZM377.163 36.6V35.6H376.163V36.6H377.163ZM392.683 36.6V37.6H393.683V36.6H392.683ZM392.683 16.28V15.28H391.683V16.28H392.683ZM408.523 16.28H409.523V15.28H408.523V16.28ZM408.523 36.6H407.523V37.6H408.523V36.6ZM438.603 36.6H439.603V35.6H438.603V36.6ZM438.603 50.36V51.36H439.603V50.36H438.603ZM408.523 50.36V49.36H407.523V50.36H408.523ZM438.603 98.04H439.603V96.1062L438.024 97.224L438.603 98.04ZM438.603 112.6L439.165 113.427L439.603 113.129V112.6H438.603ZM422.602 116.08C413.059 116.08 405.863 113.075 401.048 107.992C396.225 102.901 393.683 95.6108 393.683 86.84H391.683C391.683 95.9892 394.34 103.819 399.597 109.368C404.862 114.925 412.626 118.08 422.602 118.08V116.08ZM393.683 86.84V50.36H391.683V86.84H393.683ZM392.683 49.36H377.163V51.36H392.683V49.36ZM378.163 50.36V36.6H376.163V50.36H378.163ZM377.163 37.6H392.683V35.6H377.163V37.6ZM393.683 36.6V16.28H391.683V36.6H393.683ZM392.683 17.28H408.523V15.28H392.683V17.28ZM407.523 16.28V36.6H409.523V16.28H407.523ZM408.523 37.6H438.603V35.6H408.523V37.6ZM437.603 36.6V50.36H439.603V36.6H437.603ZM438.603 49.36H408.523V51.36H438.603V49.36ZM407.523 50.36V86.36H409.523V50.36H407.523ZM407.523 86.36C407.523 91.6774 409.104 96.0277 412.023 99.0541C414.944 102.084 419.103 103.68 424.043 103.68V101.68C419.542 101.68 415.941 100.236 413.462 97.6659C410.981 95.0923 409.523 91.2826 409.523 86.36H407.523ZM424.043 103.68C429.378 103.68 435.179 101.69 439.181 98.856L438.024 97.224C434.346 99.8295 428.947 101.68 424.043 101.68V103.68ZM437.603 98.04V112.6H439.603V98.04H437.603ZM438.04 111.773C434.234 114.361 428.198 116.08 422.602 116.08V118.08C428.527 118.08 434.971 116.279 439.165 113.427L438.04 111.773ZM531.151 115V116H532.151V115H531.151ZM516.111 115H515.111V116H516.111V115ZM516.111 101.24H517.111V97.7132L515.26 100.715L516.111 101.24ZM486.991 115.92C464.885 115.92 448.631 97.8712 448.631 75.64H446.631C446.631 98.8488 463.658 117.92 486.991 117.92V115.92ZM448.631 75.64C448.631 53.7948 466.101 35.68 489.391 35.68V33.68C465.002 33.68 446.631 52.6852 446.631 75.64H448.631ZM489.391 35.68C512.539 35.68 530.151 52.8526 530.151 75.64H532.151C532.151 51.7074 513.603 33.68 489.391 33.68V35.68ZM530.151 75.64V115H532.151V75.64H530.151ZM531.151 114H516.111V116H531.151V114ZM517.111 115V101.24H515.111V115H517.111ZM515.26 100.715C509.527 110.012 499.453 115.92 486.991 115.92V117.92C500.129 117.92 510.856 111.668 516.962 101.765L515.26 100.715ZM489.391 102.88C504.684 102.88 516.311 90.5721 516.311 75.8H514.311C514.311 89.5079 503.539 100.88 489.391 100.88V102.88ZM516.311 75.8C516.311 60.8719 504.687 48.56 489.391 48.56V50.56C503.535 50.56 514.311 61.9281 514.311 75.8H516.311ZM489.391 48.56C474.259 48.56 462.471 60.8678 462.471 75.8H464.471C464.471 61.9322 475.403 50.56 489.391 50.56V48.56ZM462.471 75.8C462.471 90.5762 474.263 102.88 489.391 102.88V100.88C475.4 100.88 464.471 89.5038 464.471 75.8H462.471ZM564.881 115V116H565.881V115H564.881ZM549.041 115H548.041V116H549.041V115ZM594.481 37.88H595.481V37.2508L594.914 36.9785L594.481 37.88ZM594.481 53.56L593.977 54.4238L595.481 55.301V53.56H594.481ZM564.881 114H549.041V116H564.881V114ZM550.041 115V68.28H548.041V115H550.041ZM550.041 68.28C550.041 58.9433 552.708 50.88 557.789 45.1644C562.855 39.4651 570.408 36 580.401 36V34C569.914 34 561.788 37.6549 556.294 43.8356C550.814 50 548.041 58.5767 548.041 68.28H550.041ZM580.401 36C585.25 36 590.214 36.941 594.049 38.7815L594.914 36.9785C590.748 34.979 585.473 34 580.401 34V36ZM593.481 37.88V53.56H595.481V37.88H593.481ZM594.985 52.6962C590.983 50.3615 586.327 49.2 581.841 49.2V51.2C585.996 51.2 590.3 52.2785 593.977 54.4238L594.985 52.6962ZM581.841 49.2C576.322 49.2 571.796 51.0892 568.658 54.5705C565.532 58.0391 563.881 62.9807 563.881 68.92H565.881C565.881 63.3393 567.43 58.9209 570.144 55.9095C572.847 52.9108 576.8 51.2 581.841 51.2V49.2ZM563.881 68.92V115H565.881V68.92H563.881ZM611.876 50.36H612.876V49.36H611.876V50.36ZM596.356 50.36H595.356V51.36H596.356V50.36ZM596.356 36.6V35.6H595.356V36.6H596.356ZM611.876 36.6V37.6H612.876V36.6H611.876ZM611.876 16.28V15.28H610.876V16.28H611.876ZM627.716 16.28H628.716V15.28H627.716V16.28ZM627.716 36.6H626.716V37.6H627.716V36.6ZM657.796 36.6H658.796V35.6H657.796V36.6ZM657.796 50.36V51.36H658.796V50.36H657.796ZM627.716 50.36V49.36H626.716V50.36H627.716ZM657.796 98.04H658.796V96.1062L657.218 97.224L657.796 98.04ZM657.796 112.6L658.359 113.427L658.796 113.129V112.6H657.796ZM641.796 116.08C632.253 116.08 625.057 113.075 620.242 107.992C615.419 102.901 612.876 95.6108 612.876 86.84H610.876C610.876 95.9892 613.533 103.819 618.79 109.368C624.055 114.925 631.819 118.08 641.796 118.08V116.08ZM612.876 86.84V50.36H610.876V86.84H612.876ZM611.876 49.36H596.356V51.36H611.876V49.36ZM597.356 50.36V36.6H595.356V50.36H597.356ZM596.356 37.6H611.876V35.6H596.356V37.6ZM612.876 36.6V16.28H610.876V36.6H612.876ZM611.876 17.28H627.716V15.28H611.876V17.28ZM626.716 16.28V36.6H628.716V16.28H626.716ZM627.716 37.6H657.796V35.6H627.716V37.6ZM656.796 36.6V50.36H658.796V36.6H656.796ZM657.796 49.36H627.716V51.36H657.796V49.36ZM626.716 50.36V86.36H628.716V50.36H626.716ZM626.716 86.36C626.716 91.6774 628.298 96.0277 631.216 99.0541C634.138 102.084 638.297 103.68 643.236 103.68V101.68C638.736 101.68 635.134 100.236 632.656 97.6659C630.174 95.0923 628.716 91.2826 628.716 86.36H626.716ZM643.236 103.68C648.572 103.68 654.373 101.69 658.374 98.856L657.218 97.224C653.54 99.8295 648.14 101.68 643.236 101.68V103.68ZM656.796 98.04V112.6H658.796V98.04H656.796ZM657.234 111.773C653.427 114.361 647.392 116.08 641.796 116.08V118.08C647.72 118.08 654.165 116.279 658.359 113.427L657.234 111.773ZM744.905 79.8V80.8H745.905V79.8H744.905ZM682.185 79.8V78.8H681.045L681.193 79.9298L682.185 79.8ZM731.145 89.88L731.602 88.9903L730.728 88.5422L730.264 89.4069L731.145 89.88ZM743.305 96.12L744.195 96.5757L744.65 95.6864L743.762 95.2303L743.305 96.12ZM682.825 69.56L681.834 69.4243L681.679 70.56H682.825V69.56ZM729.065 69.56V70.56H730.118L730.064 69.5088L729.065 69.56ZM708.425 115.76C685.127 115.76 667.825 98.9175 667.825 75.32H665.825C665.825 100.042 684.043 117.76 708.425 117.76V115.76ZM667.825 75.32C667.825 53.2538 683.594 35.36 706.505 35.36V33.36C682.376 33.36 665.825 52.2662 665.825 75.32H667.825ZM706.505 35.36C718.092 35.36 727.422 39.5419 733.858 46.3472C740.302 53.1597 743.905 62.6639 743.905 73.4H745.905C745.905 62.2161 742.148 52.2003 735.311 44.9728C728.468 37.7381 718.598 33.36 706.505 33.36V35.36ZM743.905 73.4V79.8H745.905V73.4H743.905ZM744.905 78.8H682.185V80.8H744.905V78.8ZM681.193 79.9298C683.017 93.8555 693.671 103.68 708.265 103.68V101.68C694.699 101.68 684.873 92.6245 683.177 79.6702L681.193 79.9298ZM708.265 103.68C718.16 103.68 727.18 99.3773 732.026 90.3531L730.264 89.4069C725.83 97.6627 717.57 101.68 708.265 101.68V103.68ZM730.688 90.7697L742.848 97.0097L743.762 95.2303L731.602 88.9903L730.688 90.7697ZM742.415 95.6643C735.719 108.744 723.44 115.76 708.425 115.76V117.76C724.13 117.76 737.131 110.376 744.195 96.5757L742.415 95.6643ZM682.825 70.56H729.065V68.56H682.825V70.56ZM730.064 69.5088C729.731 63.0301 727.191 57.5374 723.004 53.6658C718.818 49.7958 713.047 47.6 706.345 47.6V49.6C712.603 49.6 717.872 51.6442 721.646 55.1342C725.419 58.6226 727.759 63.6099 728.066 69.6112L730.064 69.5088ZM706.345 47.6C692.501 47.6 683.493 57.3159 681.834 69.4243L683.816 69.6957C685.357 58.4441 693.629 49.6 706.345 49.6V47.6ZM821.576 46.36L820.836 47.0327L822.567 48.9367L822.576 46.3635L821.576 46.36ZM821.736 0.599995V-0.400005H820.74L820.736 0.596498L821.736 0.599995ZM837.576 0.599995H838.576V-0.400005H837.576V0.599995ZM795.816 115.92C772.523 115.92 755.056 97.9627 755.056 75.96H753.056C753.056 99.0773 771.429 117.92 795.816 117.92V115.92ZM755.056 75.96C755.056 52.6645 771.896 35.68 795.016 35.68V33.68C770.776 33.68 753.056 51.5755 753.056 75.96H755.056ZM795.016 35.68C805.284 35.68 814.618 40.193 820.836 47.0327L822.316 45.6873C815.734 38.447 805.869 33.68 795.016 33.68V35.68ZM822.576 46.3635L822.736 0.603491L820.736 0.596498L820.576 46.3565L822.576 46.3635ZM821.736 1.59999H837.576V-0.400005H821.736V1.59999ZM836.576 0.599995V75.96H838.576V0.599995H836.576ZM836.576 75.96C836.576 98.59 818.962 115.92 795.816 115.92V117.92C820.031 117.92 838.576 99.73 838.576 75.96H836.576ZM795.816 103.04C811.112 103.04 822.736 90.7281 822.736 75.8H820.736C820.736 89.6719 809.96 101.04 795.816 101.04V103.04ZM822.736 75.8C822.736 61.0279 811.109 48.72 795.816 48.72V50.72C809.964 50.72 820.736 62.0921 820.736 75.8H822.736ZM795.816 48.72C780.688 48.72 768.896 61.0238 768.896 75.8H770.896C770.896 62.0962 781.825 50.72 795.816 50.72V48.72ZM768.896 75.8C768.896 90.7322 780.684 103.04 795.816 103.04V101.04C781.828 101.04 770.896 89.6678 770.896 75.8H768.896ZM902.051 50.36H903.051V49.36H902.051V50.36ZM886.531 50.36H885.531V51.36H886.531V50.36ZM886.531 36.6V35.6H885.531V36.6H886.531ZM902.051 36.6V37.6H903.051V36.6H902.051ZM902.051 16.28V15.28H901.051V16.28H902.051ZM917.891 16.28H918.891V15.28H917.891V16.28ZM917.891 36.6H916.891V37.6H917.891V36.6ZM947.971 36.6H948.971V35.6H947.971V36.6ZM947.971 50.36V51.36H948.971V50.36H947.971ZM917.891 50.36V49.36H916.891V50.36H917.891ZM947.971 98.04H948.971V96.1062L947.393 97.224L947.971 98.04ZM947.971 112.6L948.534 113.427L948.971 113.129V112.6H947.971ZM931.971 116.08C922.428 116.08 915.232 113.075 910.417 107.992C905.594 102.901 903.051 95.6108 903.051 86.84H901.051C901.051 95.9892 903.708 103.819 908.965 109.368C914.23 114.925 921.994 118.08 931.971 118.08V116.08ZM903.051 86.84V50.36H901.051V86.84H903.051ZM902.051 49.36H886.531V51.36H902.051V49.36ZM887.531 50.36V36.6H885.531V50.36H887.531ZM886.531 37.6H902.051V35.6H886.531V37.6ZM903.051 36.6V16.28H901.051V36.6H903.051ZM902.051 17.28H917.891V15.28H902.051V17.28ZM916.891 16.28V36.6H918.891V16.28H916.891ZM917.891 37.6H947.971V35.6H917.891V37.6ZM946.971 36.6V50.36H948.971V36.6H946.971ZM947.971 49.36H917.891V51.36H947.971V49.36ZM916.891 50.36V86.36H918.891V50.36H916.891ZM916.891 86.36C916.891 91.6774 918.473 96.0277 921.391 99.0541C924.313 102.084 928.472 103.68 933.411 103.68V101.68C928.911 101.68 925.309 100.236 922.831 97.6659C920.349 95.0923 918.891 91.2826 918.891 86.36H916.891ZM933.411 103.68C938.747 103.68 944.548 101.69 948.549 98.856L947.393 97.224C943.715 99.8295 938.315 101.68 933.411 101.68V103.68ZM946.971 98.04V112.6H948.971V98.04H946.971ZM947.409 111.773C943.603 114.361 937.567 116.08 931.971 116.08V118.08C937.895 118.08 944.34 116.279 948.534 113.427L947.409 111.773ZM998.92 115.92C975.787 115.92 958 97.8027 958 75.64H956C956 98.9173 974.693 117.92 998.92 117.92V115.92ZM958 75.64C958 53.6473 975.937 35.68 998.92 35.68V33.68C974.863 33.68 956 52.5126 956 75.64H958ZM998.92 35.68C1022.05 35.68 1039.52 53.7923 1039.52 75.64H1041.52C1041.52 52.6877 1023.15 33.68 998.92 33.68V35.68ZM1039.52 75.64C1039.52 97.8102 1021.89 115.92 998.92 115.92V117.92C1022.99 117.92 1041.52 98.9098 1041.52 75.64H1039.52ZM998.92 102.88C1014.06 102.88 1025.68 90.568 1025.68 75.8H1023.68C1023.68 89.512 1012.9 100.88 998.92 100.88V102.88ZM1025.68 75.8C1025.68 60.8761 1014.06 48.56 998.92 48.56V50.56C1012.9 50.56 1023.68 61.9239 1023.68 75.8H1025.68ZM998.92 48.56C983.632 48.56 971.84 60.8638 971.84 75.8H973.84C973.84 61.9362 984.768 50.56 998.92 50.56V48.56ZM971.84 75.8C971.84 90.5802 983.636 102.88 998.92 102.88V100.88C984.764 100.88 973.84 89.4998 973.84 75.8H971.84ZM1115.97 46.36L1115.23 47.0327L1116.96 48.9367L1116.97 46.3635L1115.97 46.36ZM1116.13 0.599995V-0.400005H1115.13L1115.13 0.596498L1116.13 0.599995ZM1131.97 0.599995H1132.97V-0.400005H1131.97V0.599995ZM1090.21 115.92C1066.92 115.92 1049.45 97.9627 1049.45 75.96H1047.45C1047.45 99.0773 1065.82 117.92 1090.21 117.92V115.92ZM1049.45 75.96C1049.45 52.6645 1066.29 35.68 1089.41 35.68V33.68C1065.17 33.68 1047.45 51.5755 1047.45 75.96H1049.45ZM1089.41 35.68C1099.68 35.68 1109.01 40.193 1115.23 47.0327L1116.71 45.6873C1110.13 38.447 1100.26 33.68 1089.41 33.68V35.68ZM1116.97 46.3635L1117.13 0.603491L1115.13 0.596498L1114.97 46.3565L1116.97 46.3635ZM1116.13 1.59999H1131.97V-0.400005H1116.13V1.59999ZM1130.97 0.599995V75.96H1132.97V0.599995H1130.97ZM1130.97 75.96C1130.97 98.59 1113.36 115.92 1090.21 115.92V117.92C1114.42 117.92 1132.97 99.73 1132.97 75.96H1130.97ZM1090.21 103.04C1105.51 103.04 1117.13 90.7281 1117.13 75.8H1115.13C1115.13 89.6719 1104.35 101.04 1090.21 101.04V103.04ZM1117.13 75.8C1117.13 61.0279 1105.5 48.72 1090.21 48.72V50.72C1104.36 50.72 1115.13 62.0921 1115.13 75.8H1117.13ZM1090.21 48.72C1075.08 48.72 1063.29 61.0238 1063.29 75.8H1065.29C1065.29 62.0962 1076.22 50.72 1090.21 50.72V48.72ZM1063.29 75.8C1063.29 90.7322 1075.08 103.04 1090.21 103.04V101.04C1076.22 101.04 1065.29 89.6678 1065.29 75.8H1063.29ZM1228.42 115V116H1229.42V115H1228.42ZM1213.38 115H1212.38V116H1213.38V115ZM1213.38 101.24H1214.38V97.7132L1212.53 100.715L1213.38 101.24ZM1184.26 115.92C1162.15 115.92 1145.9 97.8712 1145.9 75.64H1143.9C1143.9 98.8488 1160.93 117.92 1184.26 117.92V115.92ZM1145.9 75.64C1145.9 53.7948 1163.37 35.68 1186.66 35.68V33.68C1162.27 33.68 1143.9 52.6852 1143.9 75.64H1145.9ZM1186.66 35.68C1209.81 35.68 1227.42 52.8526 1227.42 75.64H1229.42C1229.42 51.7074 1210.87 33.68 1186.66 33.68V35.68ZM1227.42 75.64V115H1229.42V75.64H1227.42ZM1228.42 114H1213.38V116H1228.42V114ZM1214.38 115V101.24H1212.38V115H1214.38ZM1212.53 100.715C1206.8 110.012 1196.72 115.92 1184.26 115.92V117.92C1197.4 117.92 1208.12 111.668 1214.23 101.765L1212.53 100.715ZM1186.66 102.88C1201.95 102.88 1213.58 90.5721 1213.58 75.8H1211.58C1211.58 89.5079 1200.81 100.88 1186.66 100.88V102.88ZM1213.58 75.8C1213.58 60.8719 1201.96 48.56 1186.66 48.56V50.56C1200.8 50.56 1211.58 61.9281 1211.58 75.8H1213.58ZM1186.66 48.56C1171.53 48.56 1159.74 60.8678 1159.74 75.8H1161.74C1161.74 61.9322 1172.67 50.56 1186.66 50.56V48.56ZM1159.74 75.8C1159.74 90.5762 1171.53 102.88 1186.66 102.88V100.88C1172.67 100.88 1161.74 89.5038 1161.74 75.8H1159.74ZM1244.71 132.12L1244.23 131.243L1243.38 131.708L1243.82 132.571L1244.71 132.12ZM1257.83 124.92L1258.71 124.453L1258.24 123.555L1257.35 124.043L1257.83 124.92ZM1307.11 102.04H1308.11L1306.23 101.574L1307.11 102.04ZM1246.63 36.6V35.6H1245.63V36.6H1246.63ZM1262.31 36.6H1263.31V35.6H1262.31V36.6ZM1306.95 36.6V35.6H1305.95V36.6H1306.95ZM1322.95 36.6H1323.95V35.6H1322.95V36.6ZM1282.15 152.08C1265.8 152.08 1252.44 145.184 1245.6 131.669L1243.82 132.571C1251.06 146.896 1265.22 154.08 1282.15 154.08V152.08ZM1245.19 132.997L1258.31 125.797L1257.35 124.043L1244.23 131.243L1245.19 132.997ZM1256.95 125.387C1261.62 134.237 1270.79 139.36 1281.83 139.36V137.36C1271.43 137.36 1263 132.563 1258.71 124.453L1256.95 125.387ZM1281.83 139.36C1290.43 139.36 1297.04 136.124 1301.49 130.629C1305.91 125.162 1308.11 117.557 1308.11 108.92H1306.11C1306.11 117.243 1303.99 124.358 1299.93 129.371C1295.9 134.356 1289.87 137.36 1281.83 137.36V139.36ZM1308.11 108.92V102.04H1306.11V108.92H1308.11ZM1306.23 101.574C1301.77 110.027 1293.8 115.12 1282.31 115.12V117.12C1294.5 117.12 1303.17 111.653 1307.99 102.506L1306.23 101.574ZM1282.31 115.12C1270.54 115.12 1261.92 111.247 1256.23 104.666C1250.51 98.0622 1247.63 88.6038 1247.63 77.24H1245.63C1245.63 88.9162 1248.59 98.8978 1254.71 105.974C1260.86 113.073 1270.08 117.12 1282.31 117.12V115.12ZM1247.63 77.24V36.6H1245.63V77.24H1247.63ZM1246.63 37.6H1262.31V35.6H1246.63V37.6ZM1261.31 36.6V76.44H1263.31V36.6H1261.31ZM1261.31 76.44C1261.31 83.963 1263.27 90.4169 1267.17 95.007C1271.08 99.6194 1276.86 102.24 1284.23 102.24V100.24C1277.36 100.24 1272.18 97.8206 1268.69 93.713C1265.19 89.5831 1263.31 83.637 1263.31 76.44H1261.31ZM1284.23 102.24C1298.69 102.24 1307.95 90.1092 1307.95 75.32H1305.95C1305.95 89.3308 1297.29 100.24 1284.23 100.24V102.24ZM1307.95 75.32V36.6H1305.95V75.32H1307.95ZM1306.95 37.6H1322.95V35.6H1306.95V37.6ZM1321.95 36.6V108.76H1323.95V36.6H1321.95ZM1321.95 108.76C1321.95 121.689 1318.17 132.513 1311.35 140.091C1304.54 147.657 1294.62 152.08 1282.15 152.08V154.08C1295.12 154.08 1305.6 149.463 1312.83 141.429C1320.05 133.407 1323.95 122.071 1323.95 108.76H1321.95Z" fill="#F4A4EC" mask="url(#path-1-outside-1_4788_87)"/>
</g>
<defs>
<filter id="filter0_d_4788_87" x="0.399902" y="0.600098" width="1326.55" height="160.48" filterUnits="userSpaceOnUse" color-interpolation-filters="sRGB">
<feFlood flood-opacity="0" result="BackgroundImageFix"/>
<feColorMatrix in="SourceAlpha" type="matrix" values="0 0 0 0 0 0 0 0 0 0 0 0 0 0 0 0 0 0 127 0" result="hardAlpha"/>
<feOffset dy="4"/>
<feGaussianBlur stdDeviation="2"/>
<feComposite in2="hardAlpha" operator="out"/>
<feColorMatrix type="matrix" values="0 0 0 0 0 0 0 0 0 0 0 0 0 0 0 0 0 0 0.25 0"/>
<feBlend mode="normal" in2="BackgroundImageFix" result="effect1_dropShadow_4788_87"/>
<feBlend mode="normal" in="SourceGraphic" in2="effect1_dropShadow_4788_87" result="shape"/>
</filter>
</defs>
</svg>
