<svg width="129" height="32" viewBox="0 0 129 32" fill="none" xmlns="http://www.w3.org/2000/svg">
<path d="M35.4757 14.7308C34.7027 13.0934 33.5766 11.7968 32.1035 10.829C30.6304 9.86723 28.8103 9.38025 26.6494 9.38025C24.9572 9.38025 23.4537 9.73331 22.1571 10.4333C20.8545 11.1333 19.8318 12.1012 19.0892 13.3247C18.797 13.8056 18.5718 14.3291 18.3831 14.8708C18.2005 14.3291 17.9814 13.8056 17.6831 13.3247C16.9405 12.0951 15.8996 11.1333 14.5726 10.4333C13.2456 9.73331 11.6751 9.38025 9.86114 9.38025C7.73065 9.38025 5.92277 9.86114 4.44969 10.829C2.9766 11.7908 1.86266 13.0934 1.12003 14.7308C0.377402 16.3683 0 18.1944 0 20.2092V31.4704H4.34012V20.8667C4.34012 19.5518 4.54099 18.3405 4.95492 17.2266C5.36275 16.1187 6.0019 15.2239 6.86019 14.5543C7.72456 13.8847 8.82633 13.5438 10.1716 13.5438C11.5168 13.5438 12.6308 13.8726 13.5256 14.53C14.4143 15.1874 15.0717 16.0639 15.4978 17.1596C15.9239 18.2553 16.1309 19.4605 16.1309 20.7753V31.4704H20.471V20.7753C20.471 19.4605 20.6901 18.2553 21.1284 17.1596C21.5667 16.0639 22.2241 15.1874 23.1006 14.53C23.9772 13.8726 25.0607 13.5438 26.3451 13.5438C27.6294 13.5438 28.8043 13.8786 29.6991 14.5543C30.5878 15.2239 31.2452 16.1187 31.6713 17.2266C32.0974 18.3405 32.3044 19.5518 32.3044 20.8667V31.4704H36.6445V20.1605C36.6445 18.1761 36.2549 16.3622 35.4818 14.7247L35.4757 14.7308Z" fill="white"/>
<path d="M45.8847 5.74624C45.3856 5.74624 44.923 5.6245 44.4847 5.37493C44.0464 5.12536 43.6934 4.78448 43.4316 4.34621C43.1699 3.90793 43.0359 3.42705 43.0359 2.89747C43.0359 2.36789 43.1699 1.88701 43.4316 1.44873C43.6934 1.01046 44.0464 0.657409 44.4847 0.395663C44.923 0.133917 45.3917 0 45.8847 0C46.4082 0 46.883 0.133917 47.3091 0.395663C47.7352 0.657409 48.07 1.01046 48.3196 1.44873C48.5691 1.88701 48.6909 2.36789 48.6909 2.89747C48.6909 3.42705 48.5691 3.90793 48.3196 4.34621C48.07 4.78448 47.7352 5.12536 47.3091 5.37493C46.883 5.6245 46.4082 5.74624 45.8847 5.74624Z" fill="#F4A4EC"/>
<path d="M48.0822 10.0011H43.7421V31.4765H48.0822V10.0011Z" fill="white"/>
<path d="M58.1564 5.74624C57.6572 5.74624 57.1946 5.6245 56.7563 5.37493C56.3181 5.12536 55.965 4.78448 55.7033 4.34621C55.4415 3.90793 55.3076 3.42705 55.3076 2.89747C55.3076 2.36789 55.4415 1.88701 55.7033 1.44873C55.965 1.01046 56.3181 0.657409 56.7563 0.395663C57.1946 0.133917 57.6633 0 58.1564 0C58.6799 0 59.1547 0.133917 59.5807 0.395663C60.0068 0.657409 60.3416 1.01046 60.5912 1.44873C60.8408 1.88701 60.9625 2.36789 60.9625 2.89747C60.9625 3.42705 60.8408 3.90793 60.5912 4.34621C60.3416 4.78448 60.0068 5.12536 59.5807 5.37493C59.1547 5.6245 58.6799 5.74624 58.1564 5.74624Z" fill="#E2D26C"/>
<path d="M60.3538 10.0011H56.0137V31.4765H60.3538V10.0011Z" fill="white"/>
<path d="M77.2699 31.9574C75.7481 31.9878 74.3055 31.7078 72.9298 31.1235C71.5541 30.5391 70.361 29.7295 69.3384 28.6886C68.3158 27.6538 67.5123 26.4485 66.9279 25.0729C66.3435 23.6972 66.0514 22.2363 66.0514 20.6901C66.0514 19.144 66.3435 17.6892 66.9279 16.3317C67.5123 14.9743 68.3158 13.7752 69.3384 12.7403C70.361 11.7055 71.5602 10.902 72.9298 10.3298C74.2994 9.75766 75.7481 9.47765 77.2699 9.47765C79.2543 9.47765 81.0987 9.9281 82.7909 10.8351C84.4832 11.7421 85.8284 13.1725 86.8206 15.1326L83.2292 17.1474C82.584 15.9483 81.744 15.0595 80.7091 14.4752C79.6743 13.8908 78.5239 13.5986 77.2699 13.5986C76.016 13.5986 74.8655 13.9212 73.8307 14.5604C72.7959 15.2056 71.962 16.0639 71.335 17.1474C70.708 18.2309 70.3915 19.4118 70.3915 20.6962C70.3915 21.9806 70.708 23.2102 71.335 24.2876C71.962 25.3711 72.7959 26.2355 73.8307 26.8929C74.8655 27.5503 76.016 27.879 77.2699 27.879C78.5239 27.879 79.6743 27.5807 80.7091 26.9781C81.744 26.3816 82.584 25.4929 83.2292 24.3241L86.8206 26.2964C85.8284 28.226 84.4832 29.6504 82.7909 30.5695C81.0987 31.4887 79.2543 31.9513 77.2699 31.9513V31.9574Z" fill="white"/>
<path d="M95.5861 31.4765H91.246V18.6814C91.246 16.9283 91.5747 15.3639 92.2321 13.9943C92.8895 12.6186 93.8512 11.5412 95.1235 10.7499C96.3957 9.95853 97.9661 9.56896 99.8349 9.56896C100.535 9.56896 101.217 9.63591 101.874 9.76374C102.531 9.89766 103.14 10.0924 103.694 10.3542V14.6517C103.171 14.3291 102.605 14.0978 102.008 13.9517C101.411 13.8056 100.815 13.7325 100.231 13.7325C98.8001 13.7325 97.6679 14.1952 96.8339 15.1143C96 16.0335 95.5861 17.2813 95.5861 18.864V31.4887V31.4765Z" fill="white"/>
<path d="M117.019 32C114.858 32 112.91 31.4887 111.187 30.466C109.465 29.4434 108.089 28.0799 107.066 26.3694C106.044 24.6589 105.532 22.7658 105.532 20.6962C105.532 18.6266 106.044 16.7396 107.066 15.0413C108.089 13.3491 109.465 11.9977 111.187 10.9873C112.91 9.97679 114.852 9.47765 117.019 9.47765C119.186 9.47765 121.122 9.98288 122.85 10.9873C124.573 11.9977 125.93 13.3551 126.929 15.0656C127.921 16.7761 128.42 18.6509 128.42 20.6962C128.42 22.7415 127.921 24.665 126.929 26.3694C125.936 28.0799 124.567 29.4434 122.832 30.466C121.091 31.4887 119.155 32 117.025 32H117.019ZM117.019 27.879C118.364 27.879 119.569 27.5564 120.635 26.9173C121.7 26.2781 122.54 25.4076 123.155 24.312C123.769 23.2163 124.074 22.0293 124.074 20.7388C124.074 19.4484 123.769 18.2248 123.155 17.1474C122.54 16.0639 121.7 15.1995 120.635 14.5421C119.569 13.8847 118.364 13.556 117.019 13.556C115.674 13.556 114.468 13.8847 113.403 14.5421C112.338 15.1995 111.48 16.07 110.84 17.1474C110.195 18.2309 109.879 19.424 109.879 20.7388C109.879 22.0536 110.201 23.2163 110.84 24.312C111.486 25.4076 112.338 26.2781 113.403 26.9173C114.468 27.5625 115.674 27.879 117.019 27.879Z" fill="white"/>
</svg>
