<svg width="24" height="25" viewBox="0 0 24 25" fill="none" xmlns="http://www.w3.org/2000/svg">
<path d="M15.125 3.5C19.5391 3.5 22 5.17969 22 6.625V14.125C22 15.7656 19.2266 17.0938 15.75 17.25V17.875C15.75 19.6328 12.6641 21 8.875 21C5.04688 21 2 19.6328 2 17.875V10.375C2 8.65625 4.96875 7.44531 8.25 7.28906V6.625C8.25 5.25781 10.2031 4.4375 10.2422 4.4375C11.4922 3.85156 13.2109 3.5 15.125 3.5ZM14.5 17.875V15.9219C13.25 16.7422 11.1797 17.25 8.875 17.25C6.53125 17.25 4.46094 16.7422 3.25 15.9219V17.875C3.25 18.4219 5.20312 19.75 8.875 19.75C12.5078 19.75 14.5 18.4219 14.5 17.875ZM14.5 14.125V12.1719C13.25 12.9922 11.1797 13.5 8.875 13.5C6.53125 13.5 4.46094 12.9922 3.25 12.1719V14.125C3.25 14.6719 5.20312 16 8.875 16C12.5078 16 14.5 14.6719 14.5 14.125ZM8.875 12.25C12.0391 12.25 14.5781 11.4297 14.5781 10.375C14.5781 9.35938 12.0391 8.5 8.875 8.5C5.71094 8.5 3.13281 9.35938 3.13281 10.375C3.13281 11.4297 5.71094 12.25 8.875 12.25ZM20.75 14.125V12.1719C19.6172 12.9141 17.7812 13.3828 15.75 13.5V16C18.9922 15.8438 20.75 14.6719 20.75 14.125ZM20.75 10.375V8.42188C19.5781 9.20312 17.7031 9.67188 15.5547 9.75C15.6719 9.94531 15.75 10.1797 15.75 10.375V12.25C18.9531 12.0938 20.75 10.9219 20.75 10.375ZM15.125 8.5C18.2891 8.5 20.8281 7.67969 20.8281 6.625C20.8281 5.60938 18.2891 4.75 15.125 4.75C11.9609 4.75 9.38281 5.60938 9.38281 6.625C9.38281 6.89844 9.53906 7.09375 9.77344 7.32812C10.9844 7.36719 12.8594 7.64062 14.3047 8.5C14.5781 8.5 14.8125 8.5 15.125 8.5Z" fill="white" fill-opacity="0.5"/>
</svg>
