<svg width="24" height="25" viewBox="0 0 24 25" fill="none" xmlns="http://www.w3.org/2000/svg">
<path d="M3 9.28125V4.4375C3 3.92969 3.39062 3.5 3.9375 3.5H8.78125C9.01562 3.5 9.25 3.73438 9.25 3.96875V4.28125C9.25 4.55469 9.01562 4.75 8.78125 4.75H4.25V9.28125C4.25 9.55469 4.01562 9.75 3.78125 9.75H3.46875C3.19531 9.75 3 9.55469 3 9.28125ZM14.7188 3.5H19.5625C20.0703 3.5 20.5 3.92969 20.5 4.4375V9.28125C20.5 9.55469 20.2656 9.75 20.0312 9.75H19.7188C19.4453 9.75 19.25 9.55469 19.25 9.28125V4.75H14.7188C14.4453 4.75 14.25 4.55469 14.25 4.28125V3.96875C14.25 3.73438 14.4453 3.5 14.7188 3.5ZM20.5 15.2188V20.0625C20.5 20.6094 20.0703 21 19.5625 21H14.7188C14.4453 21 14.25 20.8047 14.25 20.5312V20.2188C14.25 19.9844 14.4453 19.75 14.7188 19.75H19.25V15.2188C19.25 14.9844 19.4453 14.75 19.7188 14.75H20.0312C20.2656 14.75 20.5 14.9844 20.5 15.2188ZM8.78125 21H3.9375C3.39062 21 3 20.6094 3 20.0625V15.2188C3 14.9844 3.19531 14.75 3.46875 14.75H3.78125C4.01562 14.75 4.25 14.9844 4.25 15.2188V19.75H8.78125C9.01562 19.75 9.25 19.9844 9.25 20.2188V20.5312C9.25 20.8047 9.01562 21 8.78125 21Z" fill="white" fill-opacity="0.5"/>
</svg>
